<?xml version="1.0" encoding="utf-8"?>
<!-- Generator: Adobe Illustrator 27.5.0, SVG Export Plug-In . SVG Version: 6.00 Build 0)  -->
<svg version="1.1" xmlns="http://www.w3.org/2000/svg" xmlns:xlink="http://www.w3.org/1999/xlink" x="0px" y="0px"
	 viewBox="0 0 500 500" style="enable-background:new 0 0 500 500;" xml:space="preserve">
<g id="Background_Complete">
	<g>
		<rect y="382.398" style="fill:#EBEBEB;" width="500" height="0.25"/>
		<rect x="416.779" y="398.494" style="fill:#EBEBEB;" width="33.122" height="0.25"/>
		<rect x="322.527" y="401.208" style="fill:#EBEBEB;" width="8.693" height="0.25"/>
		<rect x="396.586" y="389.208" style="fill:#EBEBEB;" width="19.192" height="0.25"/>
		<rect x="52.459" y="390.888" style="fill:#EBEBEB;" width="43.193" height="0.25"/>
		<rect x="104.556" y="390.888" style="fill:#EBEBEB;" width="6.333" height="0.25"/>
		<rect x="131.471" y="395.111" style="fill:#EBEBEB;" width="93.676" height="0.25"/>
		<path style="fill:#EBEBEB;" d="M237.014,337.8H43.915c-3.147,0-5.708-2.561-5.708-5.708V60.66c0-3.147,2.561-5.708,5.708-5.708
			h193.099c3.146,0,5.707,2.561,5.707,5.708v271.432C242.721,335.239,240.16,337.8,237.014,337.8z M43.915,55.203
			c-3.01,0-5.458,2.448-5.458,5.458v271.432c0,3.01,2.448,5.458,5.458,5.458h193.099c3.009,0,5.457-2.448,5.457-5.458V60.66
			c0-3.009-2.448-5.458-5.457-5.458H43.915z"/>
		<path style="fill:#EBEBEB;" d="M453.31,337.8H260.212c-3.147,0-5.707-2.561-5.707-5.708V60.66c0-3.147,2.561-5.708,5.707-5.708
			H453.31c3.148,0,5.708,2.561,5.708,5.708v271.432C459.019,335.239,456.458,337.8,453.31,337.8z M260.212,55.203
			c-3.009,0-5.457,2.448-5.457,5.458v271.432c0,3.01,2.448,5.458,5.457,5.458H453.31c3.01,0,5.458-2.448,5.458-5.458V60.66
			c0-3.009-2.448-5.458-5.458-5.458H260.212z"/>
	</g>
	<g>
		<g>
			<circle style="fill:#F0F0F0;" cx="48.959" cy="236.67" r="22.049"/>
			<path style="fill:#FAFAFA;" d="M61.751,241.489c0-2.596-0.983-5.192-2.949-7.159l-3.486-3.486l-0.253-0.253l-3.764-3.764
				c-1.966-1.966-4.562-2.949-7.159-2.949c-2.589-0.008-5.193,0.983-7.159,2.949c-0.299,0.3-0.561,0.622-0.814,0.937l6.206,6.206
				l3.387-3.387c0.675-0.675,1.769-0.675,2.444,0l3.433,3.434l0.253,0.253l3.155,3.155c0.675,0.675,0.675,1.769,0,2.444
				l-3.387,3.387l6.206,6.206c0.315-0.253,0.638-0.515,0.937-0.814C60.768,246.681,61.759,244.077,61.751,241.489z"/>
		</g>
		<g>
			
				<ellipse transform="matrix(0.2298 -0.9732 0.9732 0.2298 22.8768 228.3608)" style="fill:#F0F0F0;" cx="155.712" cy="99.727" rx="28.543" ry="28.543"/>
			<g>
				<path style="fill:#FAFAFA;" d="M163.801,109.601h-24.437c-0.992,0-1.796-0.804-1.796-1.796V91.65
					c0-0.992,0.804-1.796,1.796-1.796h24.437c0.992,0,1.796,0.804,1.796,1.796v16.155
					C165.597,108.797,164.793,109.601,163.801,109.601z"/>
				<polygon style="fill:#FAFAFA;" points="173.855,105.352 167.871,103.198 167.871,96.257 173.855,94.103 				"/>
			</g>
		</g>
		<g>
			<circle style="fill:#F0F0F0;" cx="441.845" cy="195.397" r="26.848"/>
			<g>
				<path style="fill:#FAFAFA;" d="M449.348,204.684h-22.772c-0.992,0-1.796-0.804-1.796-1.796v-14.982
					c0-0.992,0.804-1.796,1.796-1.796h22.772c0.992,0,1.796,0.804,1.796,1.796v14.982
					C451.144,203.88,450.34,204.684,449.348,204.684z"/>
				<polygon style="fill:#FAFAFA;" points="458.911,200.687 453.283,198.661 453.283,192.132 458.911,190.106 				"/>
			</g>
		</g>
		<g>
			
				<ellipse transform="matrix(0.9871 -0.1602 0.1602 0.9871 -7.9045 57.1541)" style="fill:#F0F0F0;" cx="350.551" cy="77.605" rx="32.309" ry="32.309"/>
			<g>
				<rect x="331.806" y="70.907" style="fill:#FAFAFA;" width="8.128" height="13.396"/>
				<polygon style="fill:#FAFAFA;" points="352.668,91.017 338.579,83.65 338.579,71.561 352.668,64.194 				"/>
				<g>
					<rect x="358.459" y="76.81" style="fill:#FAFAFA;" width="10.837" height="1.591"/>
					
						<rect x="356.221" y="64.971" transform="matrix(0.8817 -0.4718 0.4718 0.8817 11.7586 178.428)" style="fill:#FAFAFA;" width="10.909" height="1.591"/>
					
						<rect x="360.88" y="83.989" transform="matrix(0.4719 -0.8817 0.8817 0.4719 112.1495 366.1136)" style="fill:#FAFAFA;" width="1.591" height="10.909"/>
				</g>
			</g>
		</g>
		<g>
			
				<ellipse transform="matrix(0.9239 -0.3827 0.3827 0.9239 -85.2345 182.7589)" style="fill:#F0F0F0;" cx="416.779" cy="305.631" rx="21.838" ry="21.838"/>
			<g>
				<path style="fill:#FAFAFA;" d="M417.136,310.535h-0.714c-2.6,0-4.708-2.108-4.708-4.708v-7.329c0-2.6,2.108-4.708,4.708-4.708
					h0.714c2.6,0,4.708,2.108,4.708,4.708v7.328C421.844,308.428,419.736,310.535,417.136,310.535z"/>
				<path style="fill:#FAFAFA;" d="M416.779,313.888c-4.323,0-7.84-3.517-7.84-7.839v-3.113c0-0.386,0.313-0.697,0.698-0.697
					c0.385,0,0.698,0.311,0.698,0.697v3.113c0,3.553,2.891,6.444,6.444,6.444c3.553,0,6.444-2.892,6.444-6.444v-3.113
					c0-0.386,0.313-0.697,0.698-0.697c0.385,0,0.698,0.311,0.698,0.697v3.113C424.619,310.371,421.102,313.888,416.779,313.888z"/>
				<path style="fill:#FAFAFA;" d="M416.779,318.168c-0.385,0-0.698-0.312-0.698-0.697v-4.28c0-0.386,0.313-0.697,0.698-0.697
					c0.385,0,0.698,0.311,0.698,0.697v4.28C417.477,317.856,417.165,318.168,416.779,318.168z"/>
			</g>
			<path style="fill:#FAFAFA;" d="M428.888,318.438c-0.179,0-0.357-0.067-0.493-0.204l-24.218-24.219
				c-0.272-0.272-0.272-0.714,0-0.986c0.272-0.273,0.714-0.273,0.986,0l24.218,24.219c0.273,0.272,0.273,0.714,0,0.986
				C429.245,318.37,429.067,318.438,428.888,318.438z"/>
		</g>
		<g>
			
				<ellipse transform="matrix(0.9732 -0.2298 0.2298 0.9732 -52.4017 49.9448)" style="fill:#F0F0F0;" cx="188.276" cy="250" rx="23.141" ry="23.141"/>
			<g>
				<path style="fill:#FAFAFA;" d="M188.935,255.197h-1.319c-2.6,0-4.708-2.108-4.708-4.708v-8.328c0-2.6,2.108-4.708,4.708-4.708
					h1.319c2.6,0,4.708,2.108,4.708,4.708v8.328C193.643,253.089,191.536,255.197,188.935,255.197z"/>
				<path style="fill:#FAFAFA;" d="M188.276,258.581c-4.487,0-8.138-3.651-8.138-8.139v-3.299c0-0.314,0.255-0.57,0.57-0.57
					c0.315,0,0.57,0.256,0.57,0.57v3.299c0,3.858,3.14,6.998,6.999,6.998c3.859,0,6.999-3.14,6.999-6.998v-3.299
					c0-0.314,0.255-0.57,0.57-0.57c0.315,0,0.57,0.256,0.57,0.57v3.299C196.414,254.93,192.763,258.581,188.276,258.581z"/>
				<path style="fill:#FAFAFA;" d="M188.276,263.117c-0.315,0-0.57-0.256-0.57-0.57v-4.536c0-0.314,0.255-0.57,0.57-0.57
					c0.315,0,0.57,0.256,0.57,0.57v4.536C188.846,262.861,188.591,263.117,188.276,263.117z"/>
			</g>
			<path style="fill:#FAFAFA;" d="M201.108,263.402c-0.146,0-0.292-0.056-0.403-0.167l-25.665-25.664
				c-0.222-0.223-0.222-0.584,0-0.807c0.223-0.223,0.585-0.223,0.806,0l25.665,25.664c0.222,0.223,0.222,0.584,0,0.807
				C201.4,263.347,201.254,263.402,201.108,263.402z"/>
		</g>
	</g>
</g>
<g id="Background_Simple" style="display:none;">
	<g style="display:inline;">
		<path style="fill:#407BFF;" d="M70.157,114.27c31.242-66.524,142.181-57.139,184.993-10.357
			c42.812,46.782,56.73,76.764,95.35,59.289c38.62-17.475,87.863-12.801,90.688,42.707c2.825,55.508-42.425,121.149-114.24,140.566
			c-71.815,19.417-71.798,88.133-166.846,74.268c-51.822-7.56-53.003-63.628-45.685-110.001
			C121.736,264.367,33.925,191.419,70.157,114.27z"/>
		<path style="opacity:0.9;fill:#FFFFFF;" d="M70.157,114.27c31.242-66.524,142.181-57.139,184.993-10.357
			c42.812,46.782,56.73,76.764,95.35,59.289c38.62-17.475,87.863-12.801,90.688,42.707c2.825,55.508-42.425,121.149-114.24,140.566
			c-71.815,19.417-71.798,88.133-166.846,74.268c-51.822-7.56-53.003-63.628-45.685-110.001
			C121.736,264.367,33.925,191.419,70.157,114.27z"/>
	</g>
</g>
<g id="Shadow_1_">
	<ellipse id="_x3C_Path_x3E__359_" style="fill:#F5F5F5;" cx="247.956" cy="434.877" rx="193.889" ry="32.239"/>
</g>
<g id="Icon">
	<g>
		<path style="fill:#407BFF;" d="M251.704,92.969c-35.967,0-65.125,29.157-65.125,65.124c0,35.967,29.157,65.125,65.125,65.125
			c35.967,0,65.125-29.157,65.125-65.125C316.829,122.126,287.672,92.969,251.704,92.969z M287.083,187.165
			c-5.808,5.808-13.499,8.734-21.145,8.711c-7.668,0-15.337-2.904-21.144-8.711l-11.119-11.119l-0.747-0.747l-10.297-10.296
			c-5.808-5.808-8.712-13.476-8.712-21.144c-0.023-7.646,2.904-15.337,8.711-21.145c0.885-0.885,1.838-1.656,2.768-2.405
			l18.331,18.331l-10.003,10.003c-1.993,1.993-1.993,5.225,0,7.218l9.319,9.319l0.747,0.747l10.141,10.141
			c1.993,1.993,5.225,1.993,7.218,0l10.003-10.003l18.331,18.331C288.739,185.328,287.968,186.281,287.083,187.165z"/>
		<path style="opacity:0.4;fill:#FFFFFF;" d="M251.704,92.969c-35.967,0-65.125,29.157-65.125,65.124
			c0,35.967,29.157,65.125,65.125,65.125c35.967,0,65.125-29.157,65.125-65.125C316.829,122.126,287.672,92.969,251.704,92.969z
			 M287.083,187.165c-5.808,5.808-13.499,8.734-21.145,8.711c-7.668,0-15.337-2.904-21.144-8.711l-11.119-11.119l-0.747-0.747
			l-10.297-10.296c-5.808-5.808-8.712-13.476-8.712-21.144c-0.023-7.646,2.904-15.337,8.711-21.145
			c0.885-0.885,1.838-1.656,2.768-2.405l18.331,18.331l-10.003,10.003c-1.993,1.993-1.993,5.225,0,7.218l9.319,9.319l0.747,0.747
			l10.141,10.141c1.993,1.993,5.225,1.993,7.218,0l10.003-10.003l18.331,18.331C288.739,185.328,287.968,186.281,287.083,187.165z"
			/>
	</g>
</g>
<g id="Speech_bubble_4">
	<g>
		<g>
			<path style="fill:#407BFF;" d="M375.32,128.182h35.945c6.826,0,12.36,5.533,12.36,12.36v14.916c0,6.826-5.534,12.36-12.36,12.36
				h-24.727l-8.145,7.715l-0.169-7.715h-2.905c-6.826,0-12.359-5.534-12.359-12.36v-14.916
				C362.96,133.715,368.494,128.182,375.32,128.182z"/>
		</g>
		<g style="opacity:0.4;">
			<path style="fill:#FFFFFF;" d="M375.32,128.182h35.945c6.826,0,12.36,5.533,12.36,12.36v14.916c0,6.826-5.534,12.36-12.36,12.36
				h-24.727l-8.145,7.715l-0.169-7.715h-2.905c-6.826,0-12.359-5.534-12.359-12.36v-14.916
				C362.96,133.715,368.494,128.182,375.32,128.182z"/>
		</g>
		<g>
			<path style="fill:#FFFFFF;" d="M407.299,147.147c0,1.379,1.118,2.497,2.496,2.497c1.379,0,2.497-1.118,2.497-2.497
				c0-1.379-1.118-2.497-2.497-2.497C408.417,144.65,407.299,145.768,407.299,147.147z"/>
			<path style="fill:#FFFFFF;" d="M396.297,147.147c0,1.379,1.118,2.497,2.496,2.497c1.379,0,2.497-1.118,2.497-2.497
				c0-1.379-1.118-2.497-2.497-2.497C397.415,144.65,396.297,145.768,396.297,147.147z"/>
			<path style="fill:#FFFFFF;" d="M385.295,147.147c0,1.379,1.118,2.497,2.497,2.497c1.379,0,2.496-1.118,2.496-2.497
				c0-1.379-1.118-2.497-2.496-2.497C386.413,144.65,385.295,145.768,385.295,147.147z"/>
			<path style="fill:#FFFFFF;" d="M374.293,147.147c0,1.379,1.118,2.497,2.497,2.497c1.379,0,2.497-1.118,2.497-2.497
				c0-1.379-1.118-2.497-2.497-2.497C375.411,144.65,374.293,145.768,374.293,147.147z"/>
		</g>
	</g>
</g>
<g id="Speech_bubble_3">
	<g>
		<g>
			<path style="fill:#263238;" d="M257.425,215.919H225.92c-5.983,0-10.833,4.85-10.833,10.833v13.074
				c0,5.983,4.85,10.833,10.833,10.833h21.672l7.139,6.761l0.148-6.761h2.546c5.983,0,10.832-4.85,10.832-10.833v-13.074
				C268.258,220.769,263.408,215.919,257.425,215.919z"/>
		</g>
		<g style="opacity:0.4;">
			<path style="fill:#FFFFFF;" d="M257.425,215.919H225.92c-5.983,0-10.833,4.85-10.833,10.833v13.074
				c0,5.983,4.85,10.833,10.833,10.833h21.672l7.139,6.761l0.148-6.761h2.546c5.983,0,10.832-4.85,10.832-10.833v-13.074
				C268.258,220.769,263.408,215.919,257.425,215.919z"/>
		</g>
		<g>
			<path style="fill:#FFFFFF;" d="M229.396,232.541c0,1.208-0.98,2.188-2.188,2.188c-1.209,0-2.188-0.98-2.188-2.188
				c0-1.208,0.98-2.188,2.188-2.188C228.417,230.353,229.396,231.333,229.396,232.541z"/>
			<path style="fill:#FFFFFF;" d="M239.039,232.541c0,1.208-0.98,2.188-2.188,2.188c-1.209,0-2.188-0.98-2.188-2.188
				c0-1.208,0.98-2.188,2.188-2.188C238.06,230.353,239.039,231.333,239.039,232.541z"/>
			<path style="fill:#FFFFFF;" d="M248.682,232.541c0,1.208-0.98,2.188-2.188,2.188c-1.208,0-2.188-0.98-2.188-2.188
				c0-1.208,0.98-2.188,2.188-2.188C247.702,230.353,248.682,231.333,248.682,232.541z"/>
			<path style="fill:#FFFFFF;" d="M258.325,232.541c0,1.208-0.98,2.188-2.188,2.188c-1.208,0-2.188-0.98-2.188-2.188
				c0-1.208,0.98-2.188,2.188-2.188C257.345,230.353,258.325,231.333,258.325,232.541z"/>
		</g>
	</g>
</g>
<g id="Speech_bubble_2">
	<g>
		<g>
			<path style="fill:#407BFF;" d="M200.837,284.354h-30.164c-5.728,0-10.372,4.643-10.372,10.372v12.517
				c0,5.728,4.644,10.372,10.372,10.372h20.75l6.835,6.474l0.142-6.474h2.438c5.728,0,10.372-4.644,10.372-10.372v-12.517
				C211.209,288.997,206.565,284.354,200.837,284.354z"/>
		</g>
		<g>
			<path style="fill:#FFFFFF;" d="M174.001,300.268c0,1.157-0.938,2.095-2.095,2.095c-1.157,0-2.095-0.938-2.095-2.095
				c0-1.157,0.938-2.095,2.095-2.095C173.063,298.173,174.001,299.111,174.001,300.268z"/>
			<path style="fill:#FFFFFF;" d="M183.234,300.268c0,1.157-0.938,2.095-2.095,2.095s-2.095-0.938-2.095-2.095
				c0-1.157,0.938-2.095,2.095-2.095S183.234,299.111,183.234,300.268z"/>
			<path style="fill:#FFFFFF;" d="M192.466,300.268c0,1.157-0.938,2.095-2.095,2.095c-1.157,0-2.095-0.938-2.095-2.095
				c0-1.157,0.938-2.095,2.095-2.095C191.528,298.173,192.466,299.111,192.466,300.268z"/>
			<path style="fill:#FFFFFF;" d="M201.698,300.268c0,1.157-0.938,2.095-2.095,2.095c-1.157,0-2.095-0.938-2.095-2.095
				c0-1.157,0.938-2.095,2.095-2.095C200.76,298.173,201.698,299.111,201.698,300.268z"/>
		</g>
	</g>
</g>
<g id="Speech_bubble_1">
	<g>
		<g>
			<path style="fill:#263238;" d="M108.034,112.587H77.519c-5.795,0-10.492,4.697-10.492,10.492v12.663
				c0,5.795,4.698,10.492,10.492,10.492H98.51l6.914,6.549l0.144-6.549h2.466c5.794,0,10.492-4.698,10.492-10.492V123.08
				C118.526,117.285,113.828,112.587,108.034,112.587z"/>
		</g>
		<g>
			<path style="fill:#FFFFFF;" d="M80.886,128.686c0,1.17-0.949,2.119-2.119,2.119c-1.171,0-2.119-0.949-2.119-2.119
				c0-1.17,0.949-2.119,2.119-2.119C79.937,126.567,80.886,127.516,80.886,128.686z"/>
			<path style="fill:#FFFFFF;" d="M90.226,128.686c0,1.17-0.949,2.119-2.119,2.119c-1.171,0-2.119-0.949-2.119-2.119
				c0-1.17,0.949-2.119,2.119-2.119C89.277,126.567,90.226,127.516,90.226,128.686z"/>
			<path style="fill:#FFFFFF;" d="M99.565,128.686c0,1.17-0.949,2.119-2.119,2.119c-1.17,0-2.119-0.949-2.119-2.119
				c0-1.17,0.949-2.119,2.119-2.119C98.617,126.567,99.565,127.516,99.565,128.686z"/>
			<path style="fill:#FFFFFF;" d="M108.905,128.686c0,1.17-0.949,2.119-2.119,2.119s-2.119-0.949-2.119-2.119
				c0-1.17,0.949-2.119,2.119-2.119S108.905,127.516,108.905,128.686z"/>
		</g>
	</g>
</g>
<g id="Character_4">
	<g>
		<path style="fill:#263238;" d="M405.513,283.474c-3.765-13.5-63.51,2.698-63.51,2.698s-2.887,14.924-1.826,27.193h0
			c-0.742,16.358,2.93,31.462,3.748,47.189c-3.172,21.307,0.814,51.515,0.814,51.515l14.528,1.843c0,0,8.637-34.185,12.122-52.496
			c0.862-4.526,1.861-10.066,2.868-15.799c1.726,5.526,3.405,10.967,4.395,16.124c-0.217,21.541,7.879,50.915,7.879,50.915
			l14.643-0.169c0,0,3.862-35.047,4.799-53.663c0.649-12.84,1.038-34.443,1.207-45.637
			C407.621,308.668,408.627,294.641,405.513,283.474z"/>
		<path style="opacity:0.5;fill:#FFFFFF;" d="M405.513,283.474c-3.765-13.5-63.51,2.698-63.51,2.698s-2.887,14.924-1.826,27.193h0
			c-0.742,16.358,2.93,31.462,3.748,47.189c-3.172,21.307,0.814,51.515,0.814,51.515l14.528,1.843c0,0,8.637-34.185,12.122-52.496
			c0.862-4.526,1.86-10.066,2.868-15.799c1.726,5.526,3.405,10.967,4.395,16.125c-0.217,21.541,7.879,50.915,7.879,50.915
			l14.643-0.169c0,0,3.862-35.047,4.799-53.663c0.649-12.841,1.038-34.444,1.207-45.638
			C407.622,308.666,408.627,294.64,405.513,283.474z"/>
		<g>
			<polygon style="fill:#D9877C;" points="399.711,406.627 386.927,406.963 388.238,422.04 398.922,421.776 			"/>
			<polygon style="opacity:0.2;" points="399.708,406.632 386.919,406.968 387.656,415.411 399.268,415.116 			"/>
		</g>
		<path style="fill:#263238;" d="M385.809,413.184l15.825-0.144c0.277-0.003,0.51-0.21,0.543-0.485l0.716-5.819
			c0.042-0.345-0.24-0.643-0.586-0.619l-17.623,1.198c-0.339,0.023-0.577,0.343-0.501,0.674l1.083,4.765
			C385.323,413.007,385.55,413.186,385.809,413.184z"/>
		<path style="fill:#263238;" d="M387.272,420.12c0.04-0.353,0.448-0.62,0.753-0.498c3.206,1.274,9.29,0.298,11.596-0.144
			c0.563-0.108,1.078,0.02,1.478,0.304c2.454,1.74,8.988,2.801,8.988,2.801s0.825,2.178,0.327,3.846l-24.488-0.011
			C385.925,426.418,386.945,423.033,387.272,420.12z"/>
		<g>
			<polygon style="fill:#D9877C;" points="358.944,408.637 346.246,407.117 345.359,422.225 355.968,423.511 			"/>
			<polygon style="opacity:0.2;" points="358.941,408.642 346.238,407.121 345.744,415.582 357.276,416.972 			"/>
		</g>
		<path style="fill:#263238;" d="M343.951,412.491l15.695,2.031c0.275,0.036,0.534-0.138,0.605-0.406l1.508-5.666
			c0.089-0.336-0.149-0.669-0.496-0.694l-17.621-1.233c-0.339-0.024-0.618,0.261-0.589,0.599l0.418,4.868
			C343.493,412.25,343.693,412.458,343.951,412.491z"/>
		<path style="fill:#263238;" d="M344.996,420.12c0.04-0.353,0.448-0.62,0.753-0.498c3.206,1.274,9.29,0.298,11.596-0.144
			c0.563-0.108,1.078,0.02,1.478,0.304c2.454,1.74,8.987,2.801,8.987,2.801s0.825,2.178,0.327,3.846l-24.488-0.011
			C343.649,426.418,344.668,423.033,344.996,420.12z"/>
		<path style="opacity:0.6;fill:#FFFFFF;" d="M385.809,413.184l15.825-0.144c0.277-0.003,0.51-0.21,0.543-0.485l0.716-5.819
			c0.042-0.345-0.24-0.643-0.586-0.619l-17.623,1.198c-0.339,0.023-0.577,0.343-0.501,0.674l1.083,4.765
			C385.323,413.007,385.55,413.186,385.809,413.184z"/>
		<path style="opacity:0.6;fill:#FFFFFF;" d="M343.951,412.491l15.695,2.031c0.275,0.036,0.534-0.138,0.605-0.406l1.508-5.666
			c0.089-0.336-0.149-0.669-0.496-0.694l-17.621-1.233c-0.339-0.024-0.618,0.261-0.589,0.599l0.418,4.868
			C343.493,412.25,343.693,412.458,343.951,412.491z"/>
		<path style="fill:#407BFF;" d="M341.122,291.709l-1.18,3.774c0,0,18.146,6.873,35.763,9.788l5.957-5.33l4.341,5.33
			c0,0,16.656-2.265,22.2-6.781l-1.356-8.602L341.122,291.709z"/>
		<path style="opacity:0.5;fill:#FFFFFF;" d="M341.122,291.709l-1.18,3.774c0,0,18.146,6.873,35.763,9.788l5.957-5.33l4.341,5.33
			c0,0,16.656-2.265,22.2-6.781l-1.356-8.602L341.122,291.709z"/>
		<g>
			<path style="fill:#407BFF;" d="M385.958,219.467c8.152,1.354,17.737,2.09,25.763-0.245c0,0-3.513,2.858-3.513,2.858
				c-1.464,1.861-1.431,5.819,0.108,7.157c0.21,0.167,0.202,0.044,0.086-0.122c-0.118-0.173-0.341-0.412-0.615-0.662
				c-4.691-3.945-11.278-7.045-16.646-10.334c-2.327-1.408-3.073-4.436-1.665-6.763c0.98-1.62,2.752-2.473,4.52-2.366
				c2.601,0.162,5.011,0.504,7.503,0.942c3.776,0.695,7.592,1.643,11.26,3.083c5.18,2.199,10.032,4.625,11.51,11.171
				c0.787,4.249-1.316,9.377-5.364,11.043c-11.537,5.577-25.231,6.028-37.527,3.125
				C369.266,234.661,373.541,217.206,385.958,219.467L385.958,219.467z"/>
		</g>
		<path style="opacity:0.2;" d="M404.147,239.556c-1.408,0.189-2.805,0.322-4.196,0.405c-1.535,0.094-3.065,0.133-4.595,0.116
			c-1.524-0.022-3.048-0.061-4.573-0.194c-1.53-0.128-3.06-0.277-4.606-0.527c-1.557-0.244-3.126-0.554-4.8-1.003
			c-0.693-0.188-1.347-0.443-1.962-0.765c0.615-5.886,3.015-10.365,3.015-10.365S395.65,229.009,404.147,239.556z"/>
		<path style="fill:#EBB376;" d="M392.383,211.949l-3.67,3.973c-5.085,2.537-7.216-4.564-7.216-4.564l-3.554-4.29
			c-0.815-1.017-0.669-2.58,0.344-3.694l2.544-2.797c1.16-1.275,3.026-1.503,4.137-0.506l3.647,3.529
			c0.727,0.652,1.281,1.474,1.613,2.392L392.383,211.949z"/>
		<g>
			<path style="fill:#407BFF;" d="M388.967,218.938l-2.751-1.492c3.272-3.564,5.483-8.782,5.483-8.782l3.877-0.37
				C395.576,208.294,394.83,216.254,388.967,218.938z"/>
			<path style="opacity:0.5;fill:#FFFFFF;" d="M388.967,218.938l-2.751-1.492c3.272-3.564,5.483-8.782,5.483-8.782l3.877-0.37
				C395.576,208.294,394.83,216.254,388.967,218.938z"/>
		</g>
		<path style="fill:#407BFF;" d="M335.594,236.67c3.968,14.721,4.268,32.187,5.205,44.644c0,0-2.286,8.11,0.079,12.269
			c0,0,40.613,12.221,66.813,1.073c0,0,0.949-6.973,0.261-16.201c-1.528-20.481-11.571-35.313-17.733-53.589
			c-1.342-3.968-5.833-5.995-10.015-6.147c-10.634-0.385-24.727,0.695-35.57,2.969C337.868,223.109,333.795,229.994,335.594,236.67z
			"/>
		<g>
			<path style="fill:#EBB376;" d="M370.568,226.111c-6.871,1.086-13.491-4.161-16.94-5.855c3.235-2.811,1.161-7.366,1.596-9.87
				c0.187-1.106,0.234-1.812,0.234-1.812l15.557,3.974c-0.501,1.881-0.419,3.416,0.148,4.736c1.564,0.382,3.078,1.927,3.598,2.989
				c0.013,0.029,0.028,0.068,0.051,0.096C375.928,222.658,377.338,225.036,370.568,226.111z"/>
			<path style="opacity:0.2;" d="M374.811,220.37c-6.683,3.63-17.694-4.081-19.587-9.984c0.187-1.106,0.234-1.812,0.234-1.812
				l15.557,3.974c-0.501,1.881-0.419,3.416,0.148,4.736c1.564,0.382,3.078,1.927,3.598,2.989
				C374.774,220.303,374.788,220.342,374.811,220.37z"/>
			<g>
				<path style="fill:#407BFF;" d="M370.979,226.039l-2.85-2.039l-3.806,2.439C364.323,226.439,366.77,228.449,370.979,226.039z"/>
				<path style="opacity:0.5;fill:#FFFFFF;" d="M370.979,226.039l-2.85-2.039l-3.806,2.439
					C364.323,226.439,366.77,228.449,370.979,226.039z"/>
			</g>
			<path style="fill:#407BFF;" d="M355.112,218.352c0,0,5.668,6.236,13.017,5.647c-4.266,2.613-4.962,7.591-4.962,7.591
				s-9.177-1.662-10.958-11.363C353.293,218.493,355.112,218.352,355.112,218.352z"/>
			<g>
				<path style="fill:#407BFF;" d="M370.979,226.039l3.202-3.347l4.103,0.71C378.283,223.402,375.206,227.362,370.979,226.039z"/>
				<path style="opacity:0.5;fill:#FFFFFF;" d="M370.979,226.039l3.202-3.347l4.103,0.71
					C378.283,223.402,375.206,227.362,370.979,226.039z"/>
			</g>
			<path style="fill:#407BFF;" d="M371.158,217.281c0,0,2.875,3,3.022,5.411c3.442,0.547,5.121,5.458,5.121,5.458
				s0.591-7.409-4.82-10.665C373.168,216.777,371.158,217.281,371.158,217.281z"/>
			<path style="opacity:0.8;fill:#FFFFFF;" d="M355.112,218.352c0,0,5.668,6.236,13.017,5.647c-4.266,2.613-4.962,7.591-4.962,7.591
				s-9.177-1.662-10.958-11.363C353.293,218.493,355.112,218.352,355.112,218.352z"/>
			<path style="opacity:0.8;fill:#FFFFFF;" d="M371.158,217.281c0,0,2.875,3,3.022,5.411c3.442,0.547,5.121,5.458,5.121,5.458
				s0.591-7.409-4.82-10.665C373.168,216.777,371.158,217.281,371.158,217.281z"/>
		</g>
		<path style="opacity:0.2;" d="M335.594,236.67c3.968,14.721,4.268,32.187,5.205,44.644c0,0,3.246,1.033,12.012,0.652
			c11.001-0.478,20.689-10.43,14.589-12.685c-8.831-3.264-21.905-7.027-21.905-7.027c2.398-7.532,1.946-19.022,1.946-19.022
			L335.594,236.67z"/>
		<g>
			<path style="fill:#407BFF;" d="M351.269,240.005c0.424-0.346,0.304-0.258,0.243-0.166l-0.393,0.498
				c-4.867,6.678-9.629,14.232-12.263,22.011c-0.29,0.972-0.452,1.85-0.527,2.248c-0.039,0.194-0.051,0.247-0.139,0.078
				c-0.107-0.228-0.356-0.651-0.564-0.887c-0.259-0.385-0.984-0.895-0.903-0.705c1.831,1.469,4.94,1.976,7.412,2.619
				c5.361,1.187,11.374,1.932,17.182,2.833c2.755,0.318,4.721,2.873,4.288,5.619c-0.307,1.979-1.764,3.496-3.582,3.98
				c-4.791,1.255-9.447,2.003-14.341,2.381c-16.171,1.404-30.508-2.969-26.776-22.339c1.084-5.374,3.181-10.411,5.491-15.104
				c3.02-5.85,6.282-11.441,10.735-16.381c3.964-4.849,11.384-5.466,15.544-0.357C356.06,230.498,355.431,236.618,351.269,240.005
				L351.269,240.005z"/>
		</g>
		<path style="fill:#EBB376;" d="M361.59,269.035l-1.673,4.852c0.162,5.39,7.056,3.983,7.056,3.983l3.589,0.663
			c1.216,0.224,2.458-0.599,2.934-1.946l1.196-3.383c0.545-1.542-0.102-3.205-1.435-3.686l-2.995-1.082
			c-0.871-0.315-1.807-0.409-2.724-0.274L361.59,269.035z"/>
		<g>
			<path style="fill:#407BFF;" d="M360.837,267.35l3.322,1.336c-2.695,4.018-3.296,9.029-3.296,9.029l-4.291,2.851
				C356.572,280.565,355.447,270.889,360.837,267.35z"/>
			<path style="opacity:0.5;fill:#FFFFFF;" d="M360.837,267.35l3.322,1.336c-2.695,4.018-3.296,9.029-3.296,9.029l-4.291,2.851
				C356.572,280.565,355.447,270.889,360.837,267.35z"/>
		</g>
		<g>
			<path style="fill:#407BFF;" d="M372.818,200.118l5.445-5.88l-0.276-0.299c0,0,0.407-0.041,0.767-0.003
				c0.188,0.005,0.382,0.128,0.519,0.354l9.911,16.297c0.231,0.38,0.214,0.91-0.038,1.182l-5.578,6.024
				c-0.091,0.098-0.201,0.145-0.315,0.152l0,0.005h-0.022c-0.002,0-0.005,0.002-0.007,0.002c-0.003,0-0.006-0.002-0.01-0.002
				l-0.751,0.002l0.138-0.505l-9.82-16.146C372.548,200.92,372.565,200.39,372.818,200.118z"/>
			<path style="fill:#407BFF;" d="M382.859,217.792l5.578-6.024c0.252-0.272,0.269-0.802,0.038-1.182l-9.911-16.297
				c-0.231-0.38-0.623-0.468-0.876-0.195l-5.578,6.024c-0.252,0.272-0.269,0.802-0.038,1.182l9.911,16.297
				C382.215,217.977,382.607,218.065,382.859,217.792z"/>
			<path style="opacity:0.6;fill:#FFFFFF;" d="M382.859,217.792l5.578-6.024c0.252-0.272,0.269-0.802,0.038-1.182l-9.911-16.297
				c-0.231-0.38-0.623-0.468-0.876-0.195l-5.578,6.024c-0.252,0.272-0.269,0.802-0.038,1.182l9.911,16.297
				C382.215,217.977,382.607,218.065,382.859,217.792z"/>
			<path style="fill:#263238;" d="M382.53,217.164l5.514-5.954c0.123-0.133,0.132-0.392,0.019-0.578l-9.617-15.814
				c-0.113-0.186-0.305-0.229-0.428-0.096l-5.514,5.954c-0.123,0.133-0.132,0.392-0.019,0.578l9.617,15.813
				C382.215,217.254,382.407,217.297,382.53,217.164z"/>
			<g style="opacity:0.4;">
				<path style="fill:#FFFFFF;" d="M374.249,202.102c0.073,0,0.145-0.029,0.199-0.087l4.255-4.594
					c0.102-0.11,0.095-0.281-0.015-0.383c-0.109-0.102-0.281-0.095-0.383,0.015l-4.255,4.595c-0.102,0.11-0.095,0.281,0.015,0.383
					C374.116,202.079,374.182,202.102,374.249,202.102z"/>
			</g>
			<path style="opacity:0.4;fill:#FFFFFF;" d="M378.413,206.993c0.414,0.681,0.979,1.075,1.546,1.154
				c0.481,0.071,0.964-0.089,1.348-0.504c0.384-0.415,0.602-1.01,0.649-1.652c0.06-0.755-0.112-1.574-0.526-2.255
				c-0.763-1.255-2.059-1.544-2.891-0.645C377.706,203.99,377.65,205.738,378.413,206.993z"/>
			<path style="fill:#FFFFFF;" d="M379.897,208.053c0.02,0.032,0.039,0.065,0.062,0.094c0.481,0.071,0.964-0.089,1.348-0.504
				c0.384-0.415,0.602-1.01,0.649-1.652c-0.017-0.036-0.036-0.068-0.056-0.101c-0.406-0.667-1.032-0.911-1.552-0.687
				c0.048-0.297-0.009-0.642-0.178-0.92c-0.276-0.454-0.747-0.559-1.048-0.234c-0.301,0.325-0.322,0.961-0.046,1.415
				c0.169,0.278,0.41,0.424,0.639,0.423C379.443,206.518,379.492,207.386,379.897,208.053z"/>
			<path style="opacity:0.2;fill:#FFFFFF;" d="M382.495,216.801l5.289-5.712c0.083-0.09,0.089-0.264,0.012-0.389l-1.414-2.325
				c-0.076-0.125-0.205-0.154-0.288-0.064l-5.289,5.712c-0.083,0.09-0.089,0.264-0.013,0.389l1.414,2.325
				C382.283,216.862,382.412,216.89,382.495,216.801z"/>
			<g style="opacity:0.4;">
				<path style="fill:#FFFFFF;" d="M376.579,201.206c0.036,0,0.073-0.015,0.099-0.044l0.882-0.953
					c0.051-0.055,0.048-0.14-0.007-0.191c-0.055-0.051-0.14-0.048-0.191,0.007l-0.882,0.953c-0.051,0.055-0.048,0.14,0.007,0.191
					C376.513,201.195,376.546,201.206,376.579,201.206z"/>
			</g>
			<g>
				<path style="opacity:0.4;fill:#FFFFFF;" d="M382.053,215.054c0.191,0.314,0.515,0.387,0.723,0.161
					c0.209-0.225,0.223-0.662,0.031-0.977c-0.191-0.314-0.515-0.387-0.723-0.161C381.876,214.302,381.862,214.74,382.053,215.054z"
					/>
				<path style="opacity:0.4;fill:#FFFFFF;" d="M383.315,213.691c0.191,0.314,0.515,0.387,0.724,0.161
					c0.208-0.225,0.223-0.662,0.031-0.977s-0.515-0.387-0.724-0.161C383.138,212.94,383.124,213.377,383.315,213.691z"/>
				<path style="opacity:0.4;fill:#FFFFFF;" d="M384.577,212.329c0.191,0.314,0.515,0.387,0.724,0.161
					c0.208-0.225,0.222-0.662,0.031-0.977c-0.191-0.314-0.515-0.386-0.723-0.161C384.4,211.577,384.386,212.014,384.577,212.329z"/>
				<path style="fill:#407BFF;" d="M385.839,210.966c0.191,0.314,0.515,0.387,0.723,0.161c0.208-0.225,0.223-0.662,0.031-0.977
					c-0.191-0.314-0.515-0.387-0.724-0.161C385.662,210.215,385.648,210.652,385.839,210.966z"/>
			</g>
		</g>
		<g>
			<path style="fill:#263238;" d="M366.06,187.663c0,0,3.953,0.121,5.678,2.299c1.725,2.178,5.116,10.78,2.766,12.217
				c-2.349,1.438-10.05,0.233-10.995-2.809C362.563,196.329,366.06,187.663,366.06,187.663z"/>
			<path style="fill:#EBB376;" d="M351.139,202.507c2.656,7.701,4.639,12.877,10.453,15.046c11.551,4.309,16.247-1.31,16.132-9.605
				c-0.103-7.467-4.429-18.805-13.561-19.933C355.167,186.905,348.483,194.806,351.139,202.507z"/>
			<path style="fill:#D58745;" d="M363.834,200.77c0,0-1.818-0.376-3.016,0.605C362.52,201.374,363.834,200.77,363.834,200.77z"/>
			<path style="fill:#D58745;" d="M363.93,201.498c0,0-1.694,0.009-2.51,1.213C362.919,202.359,363.93,201.498,363.93,201.498z"/>
			<path style="fill:#D58745;" d="M370.173,192.057c0,0-4.275,0.218-7.606,1.244C366.831,192.764,370.173,192.057,370.173,192.057z"
				/>
			<path style="fill:#D58745;" d="M371.393,192.689c0,0-5.808,0.998-8.434,2.426C368.05,193.96,371.393,192.689,371.393,192.689z"/>
			<path style="fill:#263238;" d="M366.349,200.525c0.173,0.69,0.679,1.154,1.129,1.036c0.45-0.118,0.675-0.772,0.502-1.462
				c-0.173-0.69-0.679-1.154-1.129-1.036C366.401,199.181,366.176,199.836,366.349,200.525z"/>
			<path style="fill:#263238;" d="M373.525,198.914c0.173,0.69,0.679,1.153,1.13,1.036c0.45-0.117,0.675-0.772,0.502-1.462
				c-0.173-0.69-0.679-1.154-1.129-1.036C373.576,197.57,373.352,198.224,373.525,198.914z"/>
			<path style="fill:#263238;" d="M362.184,199.48c-0.069,0.009-0.141,0-0.21-0.029c-0.212-0.089-0.311-0.333-0.221-0.547
				c0.902-2.14,2.794-2.516,2.875-2.531c0.227-0.043,0.444,0.107,0.484,0.334c0.04,0.227-0.11,0.445-0.336,0.488l0,0
				c-0.062,0.012-1.535,0.322-2.255,2.029C362.461,199.37,362.329,199.463,362.184,199.48z"/>
			<path style="fill:#263238;" d="M375.804,196.341c-0.132,0.031-0.276-0.002-0.381-0.101c-1.337-1.26-2.805-0.93-2.867-0.915
				c-0.224,0.053-0.448-0.085-0.5-0.308c-0.052-0.224,0.085-0.449,0.308-0.505c0.081-0.018,1.958-0.462,3.633,1.116
				c0.167,0.158,0.174,0.423,0.016,0.592C375.955,196.282,375.882,196.323,375.804,196.341z"/>
			<g>
				<path style="fill:#263238;" d="M376.217,207.825c0,0-3.048-0.051-11.209,1.682c1.478,2.249,3.687,3.873,7.858,2.946
					C377.037,211.526,376.217,207.825,376.217,207.825z"/>
				<path style="fill:#A02724;" d="M370.518,210.937c2.013-0.448,3.568-0.298,4.805,0.219c-0.502,0.557-1.289,1.034-2.454,1.293
					c-2.013,0.447-3.557,0.307-4.795-0.22C368.576,211.671,369.353,211.195,370.518,210.937z"/>
				<path style="fill:#FFFFFF;" d="M375.832,207.834c-0.121,0.572-0.239,1.145-1.02,1.488c-1.676,0.477-6.13,0.918-7.352,0.923
					c-0.775,0.036-1.467-0.083-2.099-0.812C371.648,208.113,374.806,207.876,375.832,207.834z"/>
			</g>
			<path style="fill:#263238;" d="M362.989,184.88c-2.754-0.621-13.64,3.351-15.866,8.989c-3.722,9.426,2.991,16.014,2.991,16.014
				s3.82,0.559,7.49,0.499c3.67-0.06,2.077-10.178-0.49-12.338c0,0-0.206-0.107-0.555-0.252c-1.42-0.688-3.767-2.109-3.872-2.994
				c-0.121-1.014,3.225-4.999,5.631-5.236c2.407-0.237,5.382,0.37,6.884,0.101c1.502-0.269,2.365-0.68,2.365-0.68
				S365.742,185.501,362.989,184.88z"/>
			<path style="fill:#EBB376;" d="M350.095,211.784c1.686,1.638,3.976,2.335,5.913,2.264c2.913-0.106,3.51-2.933,1.982-5.227
				c-1.376-2.064-4.55-4.496-7.128-3.272C348.323,206.756,348.167,209.912,350.095,211.784z"/>
			<path style="fill:#263238;" d="M359.741,205.642c0,0,0.833,3.722,1.62,4.51c0.788,0.788,2.611-2.546,3.471-3.478
				c0.861-0.932,7.115-0.206,7.115-0.206s0.102,0.701,0.049,0.79c-0.053,0.089-5.96,1.316-6.694,1.223
				c-0.734-0.093-2.576,3.411,0.349,5.635c2.924,2.225,5.345,2.089,6.296,1.584c0.95-0.505,0.182-2.098,0.182-2.098l1.8-0.404
				c0,0,0.143,1.594,1.072,1.925c0.929,0.331,2.186-3.742,2.275-5.956c0.09-2.215-1.125-2.843-3.877-1.911l-0.304-1.153
				c0,0,3.484-1.758,3.897-1.529c1.043,0.579,1.958,4.322,1.753,6.682c-0.206,2.359-1.31,7.114-6.27,7.948
				c-4.961,0.834-9.398-0.099-12.357-2.308c-2.959-2.21-1.396-7.052-1.396-7.052L359.741,205.642z"/>
			<path style="fill:#D58745;" d="M371.291,200.057l1.41,5.81c0,0,1.046-0.017,2.057-0.42c0.581-0.232,0.636-1.053,0.101-1.379
				C372.991,202.93,371.291,200.057,371.291,200.057z"/>
		</g>
		<path style="opacity:0.2;" d="M374.257,345.616l3.856-24.155c0,0,3.262,28.951,0.048,37.939
			C377.237,355.662,374.257,345.616,374.257,345.616z"/>
	</g>
</g>
<g id="Character_1">
	<g>
		<g>
			<path style="fill:#EBB376;" d="M95.66,395.188c-0.546,5-1.035,19.501-2.127,23.034c2.044,3.841,4.888,4.678,6.733,2.438
				s5.437-21.694,5.437-21.694L95.66,395.188z"/>
			<path style="fill:#263238;" d="M79.975,422.512c0,0,12.128-3.575,13.016-8.35c0.087-0.469,0.48-0.78,0.979-0.697l8.808,1.474
				c0.411,0.069,0.771,0.384,0.897,0.785l0.687,8.57l-5.491,0.078l-0.687-0.583l-4.28,0.644
				c-13.521,0.423-11.368,0.461-14.071-0.298C79.409,422.952,79.975,422.512,79.975,422.512z"/>
			<path style="fill:#263238;" d="M91.396,336.543c1.68,24.95,1.97,66.87,1.97,66.87l11.86,0.52c0,0,5.99-25.76,6.9-52.74
				c0.08-2.53,0.12-5.06,0.11-7.59c2.95-18.6,6.5-32.53,9.64-43.98c2.94-10.74,5.53-19.28,6.93-27.45l-35-11.37
				C91.856,266.913,88.486,293.233,91.396,336.543z"/>
			<path style="opacity:0.2;fill:#FFFFFF;" d="M91.396,336.543c1.68,24.95,1.97,66.87,1.97,66.87l11.86,0.52
				c0,0,5.99-25.76,6.9-52.74c0.08-2.53,0.12-5.06,0.11-7.59c2.95-18.6,6.5-32.53,9.64-43.98c2.94-10.74,5.53-19.28,6.93-27.45
				l-35-11.37C91.856,266.913,88.486,293.233,91.396,336.543z"/>
			<g>
				<path style="fill:#263238;" d="M104.198,410.22c-2.251,0.168-9.796-1.249-11.249-2.142c-1.453-0.893-0.529-6.746-0.529-6.746
					s12.663-0.118,13.619,0.968C106.996,403.386,104.198,410.22,104.198,410.22z"/>
				<path style="opacity:0.3;fill:#FFFFFF;" d="M104.198,410.22c-2.251,0.168-9.796-1.249-11.249-2.142
					c-1.453-0.893-0.529-6.746-0.529-6.746s12.663-0.118,13.619,0.968C106.996,403.386,104.198,410.22,104.198,410.22z"/>
			</g>
		</g>
		<path style="opacity:0.1;" d="M112.126,351.193c0.08-2.53,0.12-5.06,0.11-7.59c2.95-18.6,6.5-32.53,9.64-43.98
			c-3.77-10.74-11.689-19.575-16.869-20.515C105.007,279.108,98.926,326.553,112.126,351.193z"/>
		<g>
			<path style="fill:#263238;" d="M93.18,264.178c-0.412-4.016,0.166-8.312,0.166-8.312c0.017-0.868,40.912-1.745,44.203-1.547
				c0,0,1.427,13.001,0.442,23.974C109.25,279.617,93.98,269.245,93.18,264.178z"/>
			<path style="opacity:0.2;fill:#FFFFFF;" d="M93.18,264.178c-0.412-4.016,0.166-8.312,0.166-8.312
				c0.017-0.868,40.912-1.745,44.203-1.547c0,0,1.427,13.001,0.442,23.974C109.25,279.617,93.98,269.245,93.18,264.178z"/>
			<g>
				<path d="M119.918,262.768c-6.195-0.038-12.788-0.186-17.787-0.368c-0.211-1.176-0.137-2.877-0.067-3.841
					c6.985,0.179,12.975,0.276,17.92,0.324C120.003,259.985,120.014,261.772,119.918,262.768z"/>
				<path d="M100.057,262.318c-2.622-0.112-4.608-0.232-5.536-0.345c-0.269-0.033-0.472-0.251-0.494-0.527
					c-0.05-0.616-0.13-1.733-0.13-2.527c0-0.327,0.27-0.587,0.591-0.577c1.962,0.061,3.853,0.116,5.687,0.166
					C100.077,259.546,99.94,261.35,100.057,262.318z"/>
				<path d="M136.844,261.98c-0.062,0.219-0.251,0.375-0.474,0.399c-2.742,0.298-8.078,0.407-14.065,0.399
					c0.093-1.059-0.049-2.843-0.15-3.877c7.96,0.058,12.813-0.012,14.303-0.039c0.293-0.005,0.539,0.213,0.571,0.51
					C137.093,259.957,137.131,260.963,136.844,261.98z"/>
			</g>
		</g>
		<g>
			<path style="fill:#EBB376;" d="M132.583,396.867c0.452,5.009,2.836,19.322,2.464,23.001c2.762,3.361,5.716,3.621,7.082,1.061
				c1.367-2.56,1.045-22.34,1.045-22.34L132.583,396.867z"/>
			<path style="fill:#263238;" d="M138.646,343.026c-1.513-36.442-0.082-59.295-0.576-76.418l-33.847-1.115
				c-0.701,6.376,1.194,32.842,12.6,74.723c6.571,24.128,15.14,65.169,15.14,65.169l11.726-1.831
				C143.689,403.555,144.62,371.93,138.646,343.026z"/>
			<path style="opacity:0.2;fill:#FFFFFF;" d="M138.646,343.026c-1.513-36.442-0.082-59.295-0.576-76.418l-33.847-1.115
				c-0.701,6.376,1.194,32.842,12.6,74.723c6.571,24.128,15.14,65.169,15.14,65.169l11.726-1.831
				C143.689,403.555,144.62,371.93,138.646,343.026z"/>
			<g>
				<path style="fill:#263238;" d="M143.921,409.917c-2.174,0.61-9.849,0.71-11.45,0.121c-1.601-0.588-1.851-6.509-1.851-6.509
					s12.39-2.617,13.542-1.74S143.921,409.917,143.921,409.917z"/>
				<path style="opacity:0.3;fill:#FFFFFF;" d="M143.921,409.917c-2.174,0.61-9.849,0.71-11.45,0.121
					c-1.601-0.588-1.851-6.509-1.851-6.509s12.39-2.617,13.542-1.74S143.921,409.917,143.921,409.917z"/>
			</g>
			<path style="fill:#263238;" d="M120.231,422.512c0,0,12.128-3.575,13.016-8.35c0.087-0.469,0.48-0.78,0.979-0.697l8.808,1.474
				c0.411,0.069,0.771,0.384,0.897,0.785l0.687,8.57l-5.491,0.078l-0.687-0.583l-4.28,0.644
				c-13.521,0.423-11.368,0.461-14.071-0.298C119.665,422.952,120.231,422.512,120.231,422.512z"/>
		</g>
		<path style="fill:#E9BFBB;" d="M102.441,203.48c-4.768-0.984-11.122-2.15-15.801-3.356c-5.314-1.457-11.018-2.584-15.763-5.963
			c-3.396-2.476-4.61-7.589-1.297-11.139c1.397-1.529,3.383-2.547,5.125-3.283c4.095-1.719,8.266-2.731,12.452-3.715
			c3.913-0.896,8.212-1.67,12.164-2.383l2.028-0.349c0.603-0.056,1.459-0.38,2.098-0.129l1.744,7.053
			c-0.408,0.505-1.272,0.633-1.829,0.869l-1.891,0.677c-3.649,1.32-7.657,2.843-11.212,4.281c-3.957,1.702-8.311,3.147-11.718,5.492
			c0.001,0.016,0.191-0.148,0.214-0.17c0.542-0.577,0.806-1.019,1.093-1.881c0.478-1.224,0.162-3.328-0.411-4.167
			c-0.571-0.966-0.853-1.085-0.935-1.198c-0.095-0.085-0.028-0.05,0.09-0.006c5.406,1.999,12.985,3.059,18.786,4.226
			c2.483,0.486,5.644,1.027,8.164,1.637C105.543,189.975,102.441,203.48,102.441,203.48L102.441,203.48z"/>
		<path style="fill:#407BFF;" d="M109.43,188.927l-6.54,10.631l-4.656,7.571l-4.007-1.552l-5.803-2.256l3.963-17.171
			C92.387,186.151,104.569,188.002,109.43,188.927z"/>
		<path style="opacity:0.2;" d="M103.289,197.652c-0.122,0.654-0.255,1.291-0.399,1.907l-4.656,7.571l-4.007-1.552
			C97.514,199.896,103.289,197.652,103.289,197.652z"/>
		<g>
			<path style="fill:#EEC1BB;" d="M100.937,175.545l4.966-6.993l6.382,8.067c0,0-5.265,5.786-8.791,3.486L100.937,175.545z"/>
			<path style="fill:#EEC1BB;" d="M114.674,166.995l1.76,3.204c0.701,1.276,0.374,2.871-0.771,3.769l-3.379,2.65l-6.382-8.067
				l4.681-2.701C112.027,165.019,113.872,165.535,114.674,166.995z"/>
		</g>
		<g>
			<path style="fill:#407BFF;" d="M148.728,209.186c-1.33,3.88-2.273,7.266-3.032,10.376c-0.504,2.034-0.926,3.952-1.336,5.814
				c-0.455,2.095-0.887,4.113-1.38,6.152c-0.499,2.045-1.064,4.102-1.774,6.269c-0.022,0.078-0.044,0.155-0.072,0.233
				c-2.211,9.533-0.532,9.206-2.006,16.977c0,0,1.042,4.562-2.256,4.717c-7.499,0.36-29.52,3.996-43.465-2.189
				c-1.663-0.737-2.467-4.889,0.105-7.2c0.959-12.554,0.643-32.679,3.364-42.972c0.377-1.424,0.815-2.66,1.319-3.664
				c5.304-10.531,10.548-14.899,10.548-14.899s0.687,0.194,3.458,0.416c9.406,0.754,20.918,3.004,29.276,5.659
				c3.475,1.103,6.041,3.73,7.189,6.906C149.503,204.087,149.592,206.68,148.728,209.186z"/>
		</g>
		<g>
			<path style="fill:#EEC1BB;" d="M134.534,175.493c-1.484,7.906-0.84,12.735,0.132,17.341c0.093,0.442-0.088,0.904-0.474,1.14
				c-3.527,2.159-7.214,4.488-13.495,3.404c-6.208-1.071-6.833-3.907-4.962-5.811c0.266-0.271,0.597-0.471,0.953-0.602
				c4.705-1.723,5.483-5.059,4.679-7.309L134.534,175.493z"/>
			<path style="opacity:0.2;" d="M134.531,175.495l-13.167,8.161c0.455,1.26,0.408,2.871-0.565,4.345
				c2.205,0.485,4.609,0.201,6.909-1.115c3.36-1.924,4.892-4.653,6.379-8.629C134.199,177.38,134.352,176.466,134.531,175.495z"/>
		</g>
		<g>
			<path style="fill:#407BFF;" d="M125.005,168.063l-2.96-7.447l0.366-0.18c0,0-0.365-0.185-0.714-0.279
				c-0.177-0.063-0.402-0.018-0.611,0.143l-15.119,11.629c-0.353,0.271-0.528,0.771-0.391,1.116l3.032,7.629
				c0.05,0.125,0.136,0.207,0.239,0.255l-0.002,0.005l0.021,0.008c0.002,0.001,0.004,0.003,0.006,0.004
				c0.003,0.001,0.007,0.001,0.009,0.002l0.7,0.272l0.053-0.52l14.979-11.522C124.967,168.908,125.142,168.408,125.005,168.063z"/>
			<path style="fill:#407BFF;" d="M109.268,180.93l-3.032-7.629c-0.137-0.345,0.038-0.845,0.391-1.116l15.119-11.629
				c0.353-0.271,0.75-0.212,0.887,0.133l3.032,7.629c0.137,0.345-0.038,0.845-0.391,1.116l-15.119,11.629
				C109.802,181.335,109.405,181.275,109.268,180.93z"/>
			<path style="opacity:0.6;fill:#FFFFFF;" d="M109.268,180.93l-3.032-7.629c-0.137-0.345,0.038-0.845,0.391-1.116l15.119-11.629
				c0.353-0.271,0.75-0.212,0.887,0.133l3.032,7.629c0.137,0.345-0.038,0.845-0.391,1.116l-15.119,11.629
				C109.802,181.335,109.405,181.275,109.268,180.93z"/>
			<path style="fill:#263238;" d="M109.801,180.462l-2.997-7.542c-0.067-0.169,0.018-0.413,0.191-0.546l14.671-11.284
				c0.173-0.133,0.367-0.104,0.434,0.065l2.997,7.542c0.067,0.169-0.019,0.413-0.191,0.546l-14.671,11.284
				C110.063,180.66,109.868,180.631,109.801,180.462z"/>
			<g style="opacity:0.4;">
				<path style="fill:#FFFFFF;" d="M122.955,169.398c-0.068-0.026-0.125-0.08-0.154-0.153l-2.313-5.819
					c-0.055-0.139,0.013-0.296,0.152-0.352c0.138-0.056,0.296,0.012,0.352,0.152l2.313,5.819c0.055,0.139-0.013,0.297-0.152,0.352
					C123.087,169.423,123.017,169.422,122.955,169.398z"/>
			</g>
			<path style="opacity:0.4;fill:#FFFFFF;" d="M117.307,172.459c-0.632,0.486-1.301,0.65-1.858,0.519
				c-0.474-0.107-0.867-0.43-1.075-0.956c-0.209-0.525-0.197-1.159-0.01-1.775c0.216-0.726,0.672-1.428,1.304-1.914
				c1.164-0.895,2.477-0.698,2.929,0.44C119.049,169.912,118.472,171.563,117.307,172.459z"/>
			<path style="fill:#FFFFFF;" d="M115.541,172.912c-0.03,0.023-0.06,0.046-0.092,0.065c-0.474-0.107-0.867-0.43-1.075-0.956
				c-0.209-0.525-0.197-1.16-0.01-1.775c0.028-0.027,0.059-0.051,0.089-0.074c0.619-0.476,1.291-0.477,1.696-0.081
				c0.062-0.295,0.24-0.596,0.498-0.794c0.421-0.324,0.898-0.252,1.062,0.16c0.164,0.412-0.047,1.012-0.468,1.336
				c-0.258,0.198-0.535,0.247-0.748,0.164C116.518,171.645,116.16,172.436,115.541,172.912z"/>
			<path style="opacity:0.2;fill:#FFFFFF;" d="M109.965,180.136l-2.875-7.234c-0.045-0.113,0.012-0.278,0.129-0.367l2.157-1.659
				c0.116-0.089,0.247-0.07,0.292,0.044l2.875,7.234c0.045,0.113-0.012,0.278-0.128,0.367l-2.157,1.659
				C110.141,180.269,110.01,180.249,109.965,180.136z"/>
			<g style="opacity:0.4;">
				<path style="fill:#FFFFFF;" d="M121.104,167.722c-0.034-0.013-0.063-0.04-0.077-0.077l-0.48-1.207
					c-0.028-0.07,0.006-0.148,0.076-0.176c0.069-0.028,0.148,0.006,0.176,0.076l0.48,1.206c0.028,0.07-0.006,0.148-0.076,0.176
					C121.17,167.735,121.134,167.734,121.104,167.722z"/>
			</g>
			<g>
				<path style="fill:#407BFF;" d="M111.007,178.666c-0.292,0.224-0.62,0.175-0.733-0.11c-0.113-0.285,0.031-0.698,0.323-0.922
					c0.292-0.224,0.62-0.175,0.733,0.11C111.442,178.029,111.298,178.441,111.007,178.666z"/>
				<path style="opacity:0.4;fill:#FFFFFF;" d="M110.321,176.94c-0.292,0.224-0.62,0.175-0.733-0.11
					c-0.113-0.285,0.031-0.698,0.323-0.922c0.292-0.224,0.62-0.175,0.733,0.11C110.757,176.303,110.612,176.716,110.321,176.94z"/>
				<path style="opacity:0.4;fill:#FFFFFF;" d="M109.635,175.214c-0.292,0.224-0.62,0.175-0.733-0.11
					c-0.113-0.285,0.031-0.698,0.323-0.922c0.291-0.224,0.62-0.175,0.733,0.11C110.071,174.577,109.926,174.99,109.635,175.214z"/>
				<path style="opacity:0.4;fill:#FFFFFF;" d="M108.949,173.489c-0.291,0.224-0.62,0.175-0.733-0.11
					c-0.113-0.285,0.031-0.698,0.323-0.922c0.292-0.224,0.62-0.175,0.733,0.11C109.385,172.851,109.241,173.264,108.949,173.489z"/>
			</g>
		</g>
		<path style="opacity:0.7;fill:#FFFFFF;" d="M144.36,225.376c-0.909,4.201-1.735,8.103-3.154,12.421
			c-0.022,0.078-0.044,0.155-0.072,0.233c-2.211,9.533-0.532,9.206-2.006,16.977c0,0,1.042,4.562-2.256,4.717
			c-7.499,0.36-29.52,3.996-43.465-2.189c-1.663-0.737-2.467-4.889,0.105-7.2c0.959-12.554,0.643-32.679,3.364-42.972
			c2.178-3.37,7.15-9.694,15.68-13.452c0,0,0.352,2.451,4.789,4.129c6.986,2.642,13.114,0,13.114,0s5.449,4.246,8.763,16.417
			C140.907,220.648,142.852,223.785,144.36,225.376z"/>
		<path style="opacity:0.2;" d="M145.696,219.561c-0.504,2.034-0.926,3.952-1.336,5.814c-0.455,2.095-0.887,4.113-1.38,6.152
			c-2.677-5.975-0.925-14.81-0.925-14.81C143.473,217.3,144.687,218.303,145.696,219.561z"/>
		<path style="fill:#E9BFBB;" d="M154.635,205.822c2.284,9.01,4.181,17.885,5.24,27.187c0.237,3.379,0.835,6.473-0.495,10.267
			c-0.947,2.355-2.484,4.568-3.823,6.47c-2.68,3.798-5.615,7.374-8.583,10.887c-3.366,3.93-7.068,8.056-10.55,11.892
			c-0.46,0.442-1.029,1.316-1.707,1.546c0,0-5.687-4.521-5.687-4.521c0.069-0.701,0.729-1.41,1.073-1.982l1.241-1.861
			c2.398-3.619,4.993-7.603,7.284-11.245c3.089-5.038,6.687-10.089,9.062-15.412c0.018-0.046,0.032-0.084,0.015-0.063
			c-0.023,0.022-0.006-0.005-0.037,0.068c-0.022,0.049-0.04,0.101-0.052,0.153c-0.013,0.04-0.018,0.144-0.023,0.092
			c-0.041-0.266-0.022-0.422-0.063-0.762c-1.283-9.74-4.145-19.668-6.327-29.318C141.201,209.219,154.635,205.822,154.635,205.822
			L154.635,205.822z"/>
		<path style="fill:#407BFF;" d="M140.158,194.467c0,0,7.78,1.604,12.283,5.654c6.003,5.4,7.081,24.816,7.081,24.816l-14.628,4.519
			l-3.475-9.907L140.158,194.467z"/>
		<g>
			<path style="fill:#EEC1BB;" d="M123.541,157.78c0,0-5.425,2.935-4.299,12.281C120.369,179.407,132.787,161.836,123.541,157.78z"
				/>
			<path style="opacity:0.5;" d="M123.541,157.78c0,0-5.425,2.935-4.299,12.281C120.369,179.407,132.787,161.836,123.541,157.78z"/>
			<path style="fill:#EEC1BB;" d="M138.444,170.694c-1.801,7.042-1,8.374-5.299,11.312c-6.467,4.419-15.533,3.803-15.44-3.662
				c0.083-6.719,1.656-18.624,9.175-20.062C134.286,156.865,140.245,163.652,138.444,170.694z"/>
			<path style="fill:#263238;" d="M129.683,169.775c-0.139,0.603-0.427,0.604-0.821,0.509c-0.394-0.095-0.746-0.249-0.607-0.852
				c0.139-0.604,0.572-1.016,0.966-0.921C129.616,168.605,129.822,169.172,129.683,169.775z"/>
			<path style="fill:#263238;" d="M122.161,168.825c-0.139,0.604-0.427,0.604-0.821,0.509c-0.394-0.095-0.746-0.249-0.606-0.852
				c0.139-0.604,0.572-1.016,0.966-0.921C122.094,167.656,122.3,168.222,122.161,168.825z"/>
			<path style="fill:#D4827D;" d="M123.362,168.769c0,0-1.518,2.518-2.91,3.618c0.7,0.921,2.17,0.815,2.17,0.815L123.362,168.769z"
				/>
			<path style="fill:#263238;" d="M131.327,167.26c0.061-0.002,0.121-0.019,0.177-0.052c0.171-0.104,0.225-0.328,0.119-0.5
				c-1.055-1.725-2.734-1.803-2.805-1.806c-0.201-0.007-0.368,0.15-0.373,0.351c-0.005,0.2,0.152,0.369,0.352,0.376l0,0
				c0.055,0.003,1.364,0.077,2.205,1.454C131.075,167.201,131.201,167.264,131.327,167.26z"/>
			<path style="fill:#263238;" d="M119.761,165.447c0.111,0.041,0.239,0.027,0.34-0.048c1.286-0.952,2.522-0.516,2.574-0.497
				c0.188,0.069,0.396-0.027,0.464-0.215c0.068-0.188-0.027-0.397-0.215-0.468c-0.069-0.024-1.646-0.602-3.257,0.592
				c-0.161,0.119-0.194,0.347-0.074,0.51C119.637,165.381,119.696,165.424,119.761,165.447z"/>
			<path style="fill:#263238;" d="M134.921,164.783c0,0,0.072-2.507-1.944-3.611s-7.811,0.99-11.001-1.897
				c0,0-2.83-4.949,3.007-6.603c5.837-1.654,15.75,2.146,18.337,7.052c2.587,4.906,0.749,8.252,0.749,8.252
				c0.179-1.473-0.113-2.225-0.113-2.225s0.188,3.349-2.342,5.278L134.921,164.783z"/>
			<path style="fill:#EEC1BB;" d="M136.798,175.381c-3.469,1.557-2.366-1.777-2.1-2.102c1.166-1.421,0.489-3.617-0.318-6.7
				c-0.359-1.372,0.219-3.494,0.219-3.494s4.118-0.375,6.469,0.476c2.427,0.879,2.314,2.892,2.314,2.892
				C142.207,172.706,139.594,174.127,136.798,175.381z"/>
			<path style="opacity:0.5;" d="M136.798,175.381c-3.469,1.557-2.366-1.777-2.1-2.102c1.166-1.421,0.489-3.617-0.318-6.7
				c-0.359-1.372,0.219-3.494,0.219-3.494s4.118-0.375,6.469,0.476c2.427,0.879,2.314,2.892,2.314,2.892
				C142.207,172.706,139.594,174.127,136.798,175.381z"/>
			<path style="fill:#EEC1BB;" d="M140.791,176.074c-1.026,1.578-2.57,2.546-3.942,2.855c-2.063,0.465-2.765-1.601-1.915-3.655
				c0.765-1.849,2.76-4.318,4.698-3.859C141.542,171.867,141.964,174.269,140.791,176.074z"/>
			<path style="fill:#263238;" d="M122.423,177.157c-0.072,0-0.142-0.037-0.18-0.103c-0.057-0.099-0.024-0.226,0.075-0.284
				c0.057-0.034,1.431-0.816,4.623-0.816c0.115,0,0.208,0.093,0.208,0.208c0,0.115-0.093,0.208-0.208,0.208
				c-3.063,0-4.401,0.751-4.414,0.759C122.495,177.148,122.459,177.157,122.423,177.157z"/>
		</g>
	</g>
</g>
<g id="Character_3">
	<g>
		<g>
			<g>
				<rect x="244.52" y="441.106" style="fill:#263238;" width="7.862" height="2.916"/>
				<rect x="308.362" y="441.106" style="fill:#263238;" width="7.862" height="2.916"/>
			</g>
			<path style="fill:#407BFF;" d="M317.304,366.395H243.44c-0.764,0-1.384,0.619-1.384,1.384v72.927
				c0,0.764,0.619,1.384,1.384,1.384h73.865c0.764,0,1.384-0.619,1.384-1.384v-72.927
				C318.688,367.014,318.069,366.395,317.304,366.395z"/>
			<path style="opacity:0.4;fill:#FFFFFF;" d="M318.693,367.782v72.92c0,0.77-0.62,1.39-1.39,1.39h-73.86
				c-0.77,0-1.39-0.62-1.39-1.39v-72.92c0-0.77,0.62-1.39,1.39-1.39h73.86C318.073,366.392,318.693,367.012,318.693,367.782z"/>
			<path style="opacity:0.2;enable-background:new    ;" d="M318.693,367.782v17.64c-36.5,0.12-67.58-1.65-76.64-2.22v-15.42
				c0-0.77,0.62-1.39,1.39-1.39h73.86C318.073,366.392,318.693,367.012,318.693,367.782z"/>
			<path style="fill:#407BFF;" d="M316.53,383.019h-72.316c-2.669,0-4.832-2.163-4.832-4.832v-9.123
				c0-2.669,2.163-4.832,4.832-4.832h72.316c2.668,0,4.832,2.163,4.832,4.832v9.123C321.362,380.856,319.198,383.019,316.53,383.019
				z"/>
			<path style="opacity:0.4;fill:#FFFFFF;" d="M321.363,369.062v9.12c0,2.67-2.16,4.84-4.83,4.84h-72.32
				c-2.67,0-4.83-2.17-4.83-4.84v-9.12c0-2.67,2.16-4.83,4.83-4.83h72.32C319.203,364.232,321.363,366.392,321.363,369.062z"/>
			<path style="opacity:0.2;enable-background:new    ;" d="M321.363,369.062v4.87c-1.65-1.6-5.304-0.766-7.934,0.884
				c-4.08,2.56-17.779,2.306-22.399-0.884c-4.61-3.19-7.551,0.884-21.176-0.307c-11.868-1.038-12.891-9.393-21.401-9.393h68.08
				C319.203,364.232,321.363,366.392,321.363,369.062z"/>
		</g>
		<g>
			<g>
				<path style="fill:#407BFF;" d="M357.324,438.245c-1.11,0-2.891-0.841-3.313-1.048c-0.003-0.001-0.005-0.003-0.008-0.004l0,0
					c0,0,0,0,0,0c-0.019-0.01-0.036-0.023-0.051-0.039c-0.02-0.02-0.036-0.046-0.047-0.074c0,0,0,0,0-0.001l0,0
					c-0.005-0.014-0.009-0.03-0.011-0.045v0v0c-0.004-0.034,0-0.067,0.012-0.098c0.031-0.084,0.721-1.929,1.805-2.365
					c0.345-0.138,0.691-0.125,1.029,0.04c0.361,0.177,0.534,0.404,0.516,0.676c-0.029,0.418-0.602,0.831-1.253,1.169
					c0.674-0.056,1.363-0.031,1.782,0.217c0.223,0.131,0.364,0.314,0.419,0.543c0.114,0.474-0.048,0.722-0.203,0.846
					C357.84,438.192,357.603,438.245,357.324,438.245z M354.74,437.072c1.167,0.51,2.622,0.966,2.999,0.663
					c0.033-0.027,0.133-0.107,0.057-0.42c-0.028-0.116-0.101-0.208-0.224-0.281C357.002,436.697,355.634,436.884,354.74,437.072z
					 M356.182,434.897c-0.104,0-0.208,0.021-0.314,0.064c-0.627,0.252-1.13,1.151-1.385,1.694c1.184-0.434,2.329-1.039,2.354-1.397
					c0.008-0.111-0.173-0.216-0.281-0.269C356.431,434.927,356.306,434.897,356.182,434.897z"/>
			</g>
			<path style="fill:#263238;" d="M345.155,436.202c0.023-0.648,7.978-0.044,7.978-0.044s4.838,5.04,9.582,6.217
				c4.744,1.176,2.051,3.999-3.266,3.935c-5.317-0.064-9.375-0.112-13.153-0.158C342.517,446.106,344.917,442.916,345.155,436.202z"
				/>
		</g>
		<g>
			<g>
				<path style="fill:#407BFF;" d="M286.319,438.245c-1.11,0-2.891-0.841-3.313-1.048c-0.003-0.001-0.005-0.003-0.008-0.004l0,0
					c0,0,0,0-0.001,0c-0.019-0.01-0.036-0.023-0.051-0.039c-0.02-0.02-0.036-0.046-0.047-0.074c0,0,0,0,0-0.001l0,0
					c-0.005-0.014-0.009-0.03-0.011-0.045v0v0c-0.004-0.034,0-0.067,0.012-0.098c0.031-0.084,0.721-1.929,1.805-2.365
					c0.345-0.138,0.691-0.125,1.029,0.04c0.361,0.177,0.534,0.404,0.516,0.676c-0.029,0.418-0.602,0.831-1.253,1.169
					c0.674-0.056,1.363-0.031,1.782,0.217c0.223,0.131,0.364,0.314,0.419,0.543c0.114,0.474-0.047,0.722-0.203,0.846
					C286.835,438.192,286.599,438.245,286.319,438.245z M283.735,437.072c1.167,0.51,2.622,0.966,2.999,0.663
					c0.033-0.027,0.133-0.107,0.057-0.42c-0.028-0.116-0.101-0.208-0.224-0.281C285.998,436.697,284.63,436.884,283.735,437.072z
					 M285.177,434.897c-0.104,0-0.208,0.021-0.314,0.064c-0.627,0.252-1.13,1.151-1.385,1.694c1.184-0.434,2.329-1.039,2.354-1.397
					c0.008-0.111-0.173-0.216-0.281-0.269C285.426,434.927,285.302,434.897,285.177,434.897z"/>
			</g>
			<path style="fill:#263238;" d="M274.151,436.202c0.023-0.648,7.978-0.044,7.978-0.044s4.838,5.04,9.582,6.217
				c4.744,1.176,2.051,3.999-3.266,3.935c-5.317-0.064-9.375-0.112-13.153-0.158C271.513,446.106,273.913,442.916,274.151,436.202z"
				/>
		</g>
		<path style="fill:#407BFF;" d="M292.445,338.228l0.523,5.549c0,0,32.48,4.937,37.679,10.019
			c5.199,5.082,23.835,82.858,23.835,82.858s-5.417,2.301-9.661,1.105c0,0-25.459-49.247-25.169-65.398
			c0,0-22.736,0.849-38.255,0.849c-15.519,0-17.373-34.983-17.373-34.983H292.445z"/>
		<path style="opacity:0.2;" d="M292.445,338.228l0.523,5.549c0,0,32.48,4.937,37.679,10.019
			c5.199,5.082,23.835,82.858,23.835,82.858s-5.417,2.301-9.661,1.105c0,0-25.459-49.247-25.169-65.398
			c0,0-22.736,0.849-38.255,0.849c-15.519,0-17.373-34.983-17.373-34.983H292.445z"/>
		<path style="opacity:0.2;enable-background:new    ;" d="M318.044,372.417c-3.71,0.13-13.31,0.45-23.17,0.64l2.02-23.35
			c0,0,11.68,1.42,19.02,6.95C318.694,358.747,318.813,365.417,318.044,372.417z"/>
		<path style="fill:#407BFF;" d="M264.024,338.228c0,0-10.041,14.869-4.577,27.085s32.826,6.705,32.826,6.705
			c-4.119,6.367-8.794,11.984-18.57,64.154c0,0,3.872,2.073,9.199,0.763c0,0,30.586-62.898,31.368-74.129
			c0.782-11.231-32.289-18.44-32.289-18.44L264.024,338.228z"/>
		<path style="opacity:0.2;" d="M264.024,338.228c0,0-10.041,14.869-4.577,27.085s32.826,6.705,32.826,6.705
			c-4.119,6.367-8.794,11.984-18.57,64.154c0,0,3.872,2.073,9.199,0.763c0,0,30.586-62.898,31.368-74.129
			c0.782-11.231-32.289-18.44-32.289-18.44L264.024,338.228z"/>
		<path style="fill:#E4897B;" d="M299.029,296.119c5.681,3.331,11.751,7.606,18.05,9.259c0.175,0.044,0.183-0.01-0.234,0.178
			c-1.115,0.534-1.988,1.695-2.088,2.921c-0.036,0.648,0.062,0.689,0.046,0.668c-1.16-3.576-3.504-6.883-5.407-10.202
			c-0.002-0.007-6.836-11.052-6.84-11.062c-1.467-2.392,1.758-4.914,3.723-2.928c4.712,4.783,9.078,9.769,13.015,15.244
			c2.416,3.48,6.716,9.511,1.701,12.926c-6.837,4.072-21.329-5.229-27.244-9.023C288.628,300.443,293.658,292.836,299.029,296.119
			L299.029,296.119z"/>
		<path style="fill:#263238;" d="M307.026,300.063c0,0-1.53,6.74-5.299,9.456c-0.865,0.626-1.846,1.036-2.96,1.108
			c-2.051,0.128-3.42-1.79-4.329-4.356c-1.724-4.872-1.801-12.077-1.801-12.077C299.145,294.964,301.517,296.854,307.026,300.063z"
			/>
		<path style="opacity:0.2;" d="M301.728,309.519c-0.865,0.626-1.846,1.036-2.96,1.108c-2.051,0.128-3.42-1.79-4.329-4.356
			c1.846-3.076,3.514-5.642,3.514-5.642S300.824,302.785,301.728,309.519z"/>
		<path style="fill:#263238;" d="M300.597,308.228c0.078,5.936-4.591,21.764-6.947,31.824l-31.412-0.423
			c0.582-2.971,2.487-12.079,2.171-18.902c-0.017-0.477-0.05-0.987-0.078-1.496c-0.066-1.336-0.172-2.766-0.288-4.296
			c-0.022-0.305-0.044-0.615-0.072-0.931c-0.15-1.774-0.338-3.68-0.56-5.725c-0.2-1.851-0.432-3.819-0.699-5.903
			c-0.122-1.014-0.255-2.051-0.399-3.126c-0.643-4.778,2.893-8.774,7.593-8.58c1.253,0.05,2.588,0.133,3.935,0.266
			c5.282,0.499,9.611,0.948,14.2,2.04c1.519,0.355,3.093,0.787,4.595,1.219C298.042,295.746,300.531,302.663,300.597,308.228z"/>
		<path style="opacity:0.2;" d="M268.76,301.732c0,0-0.737,8.757-4.717,13.203c-0.022-0.305-0.044-0.615-0.072-0.931
			c-0.15-1.774-0.338-3.68-0.56-5.725C266.028,304.836,268.76,301.732,268.76,301.732z"/>
		<path style="fill:#263238;" d="M273.59,259.195c-5.274,9.701-5.013,22.14-3.198,24.739c1.815,2.599,28.271,1.177,28.271,1.177
			s-2.574-2.816-2.839-18.521C295.559,250.886,273.59,259.195,273.59,259.195z"/>
		<path style="fill:#263238;" d="M295.114,274.634c2.61-4.066,5.529-15.213-4.375-19.153c-12.364-4.918-18.363,2.835-19.812,10.726
			c-1.449,7.89,2.75,14.1,11.081,13.883C290.339,279.873,293.309,277.447,295.114,274.634z"/>
		<g>
			<path style="fill:#E4897B;" d="M279.157,275.672c0.123,4.778-0.386,13.355-4.027,15.637c0,0,1.57,1.864,12.061,8.163
				c3.521-3.109,1.872-4.774,1.872-4.774c-4.798-2.431-4.043-6.176-2.585-9.511L279.157,275.672z"/>
			<path style="opacity:0.2;" d="M282.141,279.554l4.334,5.629c-0.348,0.788-0.652,1.6-0.847,2.413
				c-4.21-2.194-5.614-6.282-5.614-6.282S281.9,279.987,282.141,279.554z"/>
		</g>
		<g>
			<path style="fill:#E4897B;" d="M306.48,286.808l0.025-8.133l-7.023,1.114c0,0-0.816,5.683,3.308,8.011L306.48,286.808z"/>
			<polygon style="fill:#E4897B;" points="303.803,273.555 298.767,275.638 299.482,279.789 306.505,278.675 			"/>
		</g>
		<g>
			<path style="fill:#E4897B;" d="M249.549,292.872l-6.505-4.883l5.123-4.932c0,0,5.027,2.774,4.398,7.469L249.549,292.872z"/>
			<polygon style="fill:#E4897B;" points="240.589,282.746 245.287,279.985 248.168,283.057 243.045,287.989 			"/>
		</g>
		<path style="fill:#E4897B;" d="M269.702,298.234c-1.594,4.342-3.365,8.427-5.565,12.539c-2.213,3.839-4.433,8.337-8.71,10.665
			c-1.692,0.962-4.26,0.72-5.682-0.504c-4.084-3.319-3.144-12.265-3.084-16.999c0.229-4.515,0.732-8.929,1.451-13.375
			c0.21-1.299,1.433-2.181,2.732-1.971c1.121,0.181,1.931,1.117,1.998,2.204c0.265,4.352,0.548,8.75,0.886,13.044
			c0.424,3.636,0.466,7.697,1.791,10.96c-0.207-0.607-1.662-1.437-2.584-1.357c-0.501-0.027-1.066,0.141-1.457,0.286
			c0.013-0.039,0.032-0.043,0.122-0.153c4.036-5.362,6.445-12.471,9.143-18.695C263.16,289.081,271.682,292.268,269.702,298.234
			L269.702,298.234z"/>
		<g>
			<path style="fill:#407BFF;" d="M290.499,270.874l5.445-5.88l-0.276-0.299c0,0,0.407-0.041,0.767-0.003
				c0.188,0.005,0.382,0.128,0.519,0.354l9.911,16.297c0.231,0.38,0.214,0.91-0.038,1.182l-5.578,6.024
				c-0.091,0.099-0.201,0.145-0.315,0.152l0,0.005h-0.022c-0.002,0-0.005,0.002-0.007,0.002c-0.003,0-0.006-0.001-0.009-0.001
				l-0.751,0.001l0.138-0.505l-9.82-16.146C290.23,271.675,290.247,271.146,290.499,270.874z"/>
			<path style="fill:#407BFF;" d="M300.541,288.548l5.578-6.024c0.252-0.272,0.269-0.802,0.038-1.182l-9.911-16.297
				c-0.231-0.38-0.624-0.468-0.876-0.195l-5.578,6.024c-0.252,0.272-0.269,0.802-0.038,1.182l9.911,16.297
				C299.896,288.733,300.289,288.82,300.541,288.548z"/>
			<path style="opacity:0.6;fill:#FFFFFF;" d="M300.541,288.548l5.578-6.024c0.252-0.272,0.269-0.802,0.038-1.182l-9.911-16.297
				c-0.231-0.38-0.624-0.468-0.876-0.195l-5.578,6.024c-0.252,0.272-0.269,0.802-0.038,1.182l9.911,16.297
				C299.896,288.733,300.289,288.82,300.541,288.548z"/>
			<path style="fill:#263238;" d="M300.212,287.919l5.514-5.954c0.123-0.133,0.132-0.392,0.019-0.578l-9.617-15.814
				c-0.113-0.186-0.305-0.229-0.428-0.095l-5.514,5.954c-0.123,0.133-0.132,0.392-0.019,0.578l9.617,15.814
				C299.897,288.01,300.089,288.053,300.212,287.919z"/>
			<g style="opacity:0.4;">
				<path style="fill:#FFFFFF;" d="M291.93,272.858c0.073,0,0.145-0.029,0.199-0.087l4.255-4.595
					c0.102-0.11,0.095-0.281-0.015-0.383c-0.109-0.102-0.281-0.095-0.383,0.015l-4.255,4.595c-0.102,0.11-0.095,0.281,0.015,0.383
					C291.798,272.834,291.864,272.858,291.93,272.858z"/>
			</g>
			<path style="opacity:0.4;fill:#FFFFFF;" d="M296.095,277.749c0.414,0.681,0.979,1.075,1.546,1.154
				c0.481,0.071,0.964-0.089,1.348-0.504c0.384-0.415,0.602-1.011,0.649-1.652c0.06-0.755-0.112-1.574-0.526-2.255
				c-0.763-1.255-2.059-1.544-2.891-0.645C295.388,274.745,295.332,276.494,296.095,277.749z"/>
			<path style="fill:#FFFFFF;" d="M297.579,278.808c0.02,0.032,0.039,0.065,0.062,0.094c0.481,0.071,0.964-0.089,1.348-0.504
				c0.384-0.415,0.602-1.01,0.649-1.652c-0.017-0.036-0.036-0.068-0.056-0.101c-0.406-0.667-1.032-0.911-1.552-0.687
				c0.048-0.297-0.009-0.642-0.178-0.92c-0.276-0.454-0.747-0.559-1.048-0.234c-0.301,0.325-0.322,0.961-0.046,1.415
				c0.169,0.278,0.41,0.424,0.639,0.423C297.124,277.274,297.174,278.141,297.579,278.808z"/>
			<path style="opacity:0.2;fill:#FFFFFF;" d="M300.177,287.556l5.289-5.712c0.083-0.09,0.089-0.264,0.013-0.389l-1.414-2.325
				c-0.076-0.125-0.205-0.154-0.288-0.064l-5.289,5.712c-0.083,0.09-0.089,0.264-0.013,0.389l1.414,2.325
				C299.965,287.617,300.094,287.646,300.177,287.556z"/>
			<g style="opacity:0.4;">
				<path style="fill:#FFFFFF;" d="M294.261,271.962c0.036,0,0.073-0.015,0.099-0.044l0.882-0.953
					c0.051-0.055,0.048-0.141-0.007-0.191c-0.055-0.051-0.14-0.048-0.191,0.007l-0.882,0.953c-0.051,0.055-0.048,0.141,0.007,0.191
					C294.195,271.95,294.228,271.962,294.261,271.962z"/>
			</g>
			<g>
				<path style="opacity:0.4;fill:#FFFFFF;" d="M299.735,285.81c0.191,0.314,0.515,0.387,0.723,0.161
					c0.208-0.225,0.223-0.662,0.031-0.977c-0.191-0.314-0.515-0.387-0.724-0.161C299.558,285.058,299.544,285.495,299.735,285.81z"
					/>
				<path style="opacity:0.4;fill:#FFFFFF;" d="M300.997,284.447c0.191,0.314,0.515,0.387,0.723,0.161
					c0.208-0.225,0.223-0.662,0.031-0.977c-0.191-0.314-0.515-0.387-0.723-0.161C300.82,283.695,300.806,284.133,300.997,284.447z"
					/>
				<path style="opacity:0.4;fill:#FFFFFF;" d="M302.259,283.084c0.191,0.314,0.515,0.386,0.723,0.161
					c0.208-0.225,0.223-0.662,0.031-0.977c-0.191-0.314-0.515-0.387-0.724-0.161C302.082,282.333,302.068,282.77,302.259,283.084z"
					/>
				<path style="fill:#407BFF;" d="M303.521,281.722c0.191,0.314,0.515,0.387,0.723,0.161c0.208-0.225,0.223-0.662,0.031-0.977
					s-0.515-0.387-0.724-0.161C303.343,280.97,303.329,281.408,303.521,281.722z"/>
			</g>
		</g>
		<g>
			<path style="fill:#E4897B;" d="M275.948,267.824c0.56,7.56,0.635,10.771,4.505,14.606c5.821,5.769,14.984,3.428,16.694-4.146
				c1.539-6.818,0.365-18.035-7.078-20.953C282.736,254.457,275.388,260.264,275.948,267.824z"/>
			<path style="fill:#263238;" d="M281.732,260.202c2.323,2.44-1.723,11.122-5.354,12.859
				C268.864,271.293,274.798,252.92,281.732,260.202z"/>
			<path style="fill:#263238;" d="M290.363,255.902c2.884,0.978,5.947,5.969,6.457,7.889c-4.101,0.671-15.155-3.17-15.155-3.17
				s-7.376,2.037-3.64-1.703C281.762,255.178,290.363,255.902,290.363,255.902z"/>
			<g>
				<path style="fill:#263238;" d="M294.931,270.8c0.008,0.616,0.341,1.111,0.743,1.106c0.403-0.005,0.723-0.509,0.715-1.125
					c-0.008-0.616-0.34-1.111-0.743-1.106C295.243,269.681,294.923,270.184,294.931,270.8z"/>
				<path style="fill:#263238;" d="M295.469,269.712l1.474-0.445C296.943,269.267,296.198,270.432,295.469,269.712z"/>
			</g>
			<path style="fill:#E4897B;" d="M273.985,274.787c0.557,1.47,1.74,2.545,2.926,3.057c1.784,0.769,2.936-0.763,2.658-2.583
				c-0.25-1.638-1.48-4.012-3.375-4.011C274.327,271.25,273.349,273.106,273.985,274.787z"/>
			<path style="fill:#263238;" d="M285.226,268.298c0.151,0.021,0.305-0.055,0.376-0.199c0.736-1.503,2.862-1.86,2.883-1.863
				c0.197-0.032,0.332-0.217,0.3-0.414c-0.031-0.197-0.216-0.332-0.415-0.3c-0.102,0.017-2.519,0.423-3.418,2.26
				c-0.088,0.179-0.013,0.396,0.166,0.484C285.153,268.282,285.189,268.293,285.226,268.298z"/>
			<path style="fill:#263238;" d="M297.053,266.351c0.122,0.017,0.25-0.028,0.333-0.132c0.125-0.156,0.1-0.384-0.056-0.509
				c-1.56-1.253-3.154-0.752-3.22-0.73c-0.19,0.062-0.294,0.266-0.232,0.456c0.062,0.189,0.265,0.293,0.455,0.232l0,0
				c0.053-0.017,1.298-0.395,2.544,0.606C296.93,266.317,296.991,266.342,297.053,266.351z"/>
			<g>
				<path style="fill:#263238;" d="M287.968,270.888c0.008,0.616,0.341,1.111,0.743,1.106c0.403-0.005,0.723-0.508,0.715-1.125
					c-0.008-0.616-0.34-1.111-0.743-1.106C288.28,269.768,287.96,270.272,287.968,270.888z"/>
				<path style="fill:#263238;" d="M288.506,269.8l1.474-0.445C289.98,269.354,289.235,270.52,288.506,269.8z"/>
			</g>
			<g>
				<path style="fill:#263238;" d="M291.543,278.34c-0.749,0.84-1.755,2.537-1.755,2.537c-0.17-0.063-0.34-0.127-0.507-0.199
					c-2.286-0.918-3.043-2.099-3.189-3.13c-0.078-0.564,0.035-1.088,0.18-1.493c0.162-0.471,0.385-0.769,0.385-0.769
					c0.921,1.211,2.986,2.231,4.111,2.729C291.238,278.228,291.543,278.34,291.543,278.34z"/>
				<path style="fill:#FFFFFF;" d="M290.769,278.015l-0.537,0.735c-2.151-0.87-3.548-1.771-3.96-2.695
					c0.162-0.471,0.385-0.769,0.385-0.769C287.579,276.496,289.643,277.516,290.769,278.015z"/>
				<path style="fill:#DE5753;" d="M289.281,280.677c-2.286-0.918-3.043-2.099-3.189-3.13c0.767,0.343,1.653,0.842,2.336,1.522
					C288.953,279.588,289.185,280.157,289.281,280.677z"/>
			</g>
			<path style="fill:#263238;" d="M289.383,274.386c-1.541,0-2.794-1.418-2.794-3.162c0-1.743,1.253-3.161,2.794-3.161
				c1.541,0,2.794,1.418,2.794,3.161C292.177,272.968,290.924,274.386,289.383,274.386z M289.383,268.541
				c-1.277,0-2.316,1.203-2.316,2.683s1.039,2.684,2.316,2.684c1.277,0,2.316-1.204,2.316-2.684S290.66,268.541,289.383,268.541z"/>
			<path style="fill:#263238;" d="M296.206,274.386c-1.541,0-2.794-1.418-2.794-3.162c0-1.743,1.254-3.161,2.794-3.161
				c1.541,0,2.794,1.418,2.794,3.161C299,272.968,297.747,274.386,296.206,274.386z M296.206,268.541
				c-1.277,0-2.316,1.203-2.316,2.683s1.039,2.684,2.316,2.684c1.277,0,2.316-1.204,2.316-2.684S297.482,268.541,296.206,268.541z"
				/>
			<path style="fill:#DE5753;" d="M292.869,270.73c0,0,1.079,2.639,2.245,3.904c-0.804,0.769-2.191,0.44-2.191,0.44L292.869,270.73z
				"/>
			<path style="fill:#263238;" d="M292.065,271.427l-0.255-0.406c0.054-0.033,1.324-0.813,2.026,0.052l-0.372,0.303
				C293.025,270.831,292.075,271.421,292.065,271.427z"/>
			<rect x="277.65" y="270.984" style="fill:#263238;" width="9.177" height="0.479"/>
		</g>
		<path style="fill:#263238;" d="M268.872,290.697c-6.429,0.118-7.75,1.755-12.373,10.89l9.717,7.059c0,0,3.762-5.472,4.428-9.906
			C271.311,294.306,268.872,290.697,268.872,290.697z"/>
	</g>
</g>
<g id="Character_2">
	<g>
		<g>
			<path style="fill:#B55B52;" d="M218.591,430.985l-4.77,5.43l-3.79,4.31l-5.34,6.08l-1.42,1.62c-0.01,0.01-0.01,0.01-0.01,0.01
				l-1.28,1.45c-0.19-0.21-0.39-0.43-0.59-0.65c-0.62-0.7-1.26-1.44-1.93-2.23c-0.37-0.44-0.75-0.9-1.13-1.38
				c-4.44-5.43-9.65-12.6-14.68-19.91c-2.07-3.02-4.12-6.06-6.07-9.02c-5.24,10.29-36.39,22.57-40.32,32.97
				c-0.54,0.34-2.22-0.38-3.91-1.25c-2.06-1.09-4.13-2.44-4.13-2.44s31.2-42.99,45.51-52.43c1.38-0.92,2.61-1.51,3.63-1.73
				c0.24-0.05,0.49-0.08,0.75-0.08C188.661,391.735,212.891,424.305,218.591,430.985z"/>
			<path style="fill:#B55B52;" d="M136.472,456.525c-2.51,0.05-3.26-0.34-6.38-0.23c-3.18,0.11-4.24,0.2-8.72,0.22
				c-0.68,0.01-1.44,0.01-2.29,0.01c-2.6,0-3.55-3.39-0.05-3.86c3.66-0.49,8.85-4.14,10.19-6.69l7.23,0.68l0.13,0.01
				c0.22,0.93,0.46,2.01,0.68,3c0.22,1,0.42,1.91,0.59,2.49C138.501,454.465,138.571,456.475,136.472,456.525z"/>
			<path style="fill:#263238;" d="M234.861,447.405c0,0-11.97,10.78-21.75,9.23c-6.47-1.03-10.59-4.74-12.64-7.13
				c-1.05-1.22-1.55-2.1-1.55-2.1l0.54-0.4l3-2.22l6.63-4.88l4.73-3.49l7.18-5.3l8.74,10.27L234.861,447.405z"/>
			<path style="fill:#407BFF;" d="M208.036,438.968c0,0-6.054,5.777-10.777,7.003l1.787,3.779c0,0,6.511-0.191,11.489-8.585
				L208.036,438.968z"/>
			<path style="opacity:0.6;fill:#FFFFFF;" d="M208.036,438.968c0,0-6.054,5.777-10.777,7.003l1.787,3.779
				c0,0,6.511-0.191,11.489-8.585L208.036,438.968z"/>
			<path style="opacity:0.2;enable-background:new    ;" d="M229.742,441.385l-6.53,12.23c0,0-8.44,1.3-18.01-6.39
				c-0.17-0.14-0.34-0.28-0.51-0.42c-0.74-0.62-1.49-1.29-2.23-2.02c-0.28-0.27-0.56-0.55-0.84-0.84
				c-4.54-4.7-9.14-11.65-13.04-21.89c0,0-1.84,2.15-4.93,3.66c-2.07-3.02-4.12-6.06-6.07-9.02c-5.24,10.29-36.39,22.57-40.32,32.97
				c0.22,1,0.42,1.91,0.59,2.49c0.65,2.31,0.72,4.32-1.38,4.37c-2.51,0.05-3.26-0.34-6.38-0.23c-3.18,0.11-4.24,0.2-8.72,0.22
				c0.63-1.52,1.74-3.36,3.58-4.07c2.07-0.79,5.54-2.5,8.4-4.03c1.19-0.65,2.28-1.26,3.1-1.76c0.43-0.26,0.78-0.49,1.05-0.68
				c2.05-1.46,21.24-34.66,38.78-47.93c0,0-1.27-2.05-1.55-4.5c1.38-0.92,2.61-1.51,3.63-1.73c0.24-0.05,0.49-0.08,0.75-0.08
				c9.55,0,33.78,32.57,39.48,39.25l-4.77,5.43l7.18-5.3L229.742,441.385z"/>
		</g>
		<path style="fill:#B65B52;" d="M197.043,381.948c-4.071,6.639-7.156,14.734-13.795,19.546c-1.793,1.364-4.75,1.207-6.291-0.527
			c-1.975-2.068-1.63-5.183-1.476-7.5c0.283-3.184,0.83-6.299,1.449-9.385c0.806-4.059,1.801-8.032,2.965-12.004
			c0.377-1.288,1.727-2.026,3.014-1.648c1.102,0.323,1.803,1.36,1.743,2.458c-0.15,7.695-1.253,15.646-0.667,23.261
			c0.021,0.107,0.057,0.185,0.03,0.047c-0.372-1.665-2.816-2.948-4.531-2.449c-0.58,0.115-1.018,0.378-1.219,0.486
			c0.014-0.015,0.063-0.06,0.079-0.074c1.813-1.816,3.067-4.221,4.444-6.636c1.813-3.318,3.908-7.541,6.013-10.774
			C192.432,371.591,200.135,376.46,197.043,381.948L197.043,381.948z"/>
		<path style="opacity:0.2;enable-background:new    ;" d="M192.923,381.188c0,0-1.575,3.596-1.575,7.72
			c0,0-1.954-0.578-6.949-0.291c0.246-1.32,0.524-3.236,0.499-5.045l-0.854,1.602v3.463c0,0-5.568,1.907-8.353,2.844
			c-0.083,0.654-0.155,1.314-0.211,1.99c-0.05,0.554-0.089,1.12-0.111,1.718c-0.017,0.604-0.028,1.219,0.044,1.995
			c0.039,0.399,0.083,0.82,0.25,1.447c0.094,0.327,0.205,0.704,0.51,1.275c0.183,0.31,0.366,0.626,0.782,1.064
			c0.094,0.1,0.199,0.199,0.338,0.316c0.139,0.116,0.26,0.216,0.421,0.327c0.172,0.111,0.349,0.216,0.532,0.31
			c0.183,0.094,0.405,0.183,0.615,0.255c0.876,0.305,1.846,0.299,2.527,0.139c0.166-0.039,0.31-0.078,0.46-0.122l0.222-0.078
			l0.172-0.072c0.117-0.05,0.227-0.1,0.338-0.155l0.266-0.144l0.272-0.166l0.128-0.083l0.26-0.172
			c0.344-0.227,0.637-0.455,0.931-0.687c1.125-0.931,2.001-1.851,2.766-2.777c1.519-1.846,2.744-3.658,3.869-5.482
			c1.131-1.807,2.145-3.619,3.137-5.387c0.438-0.793,0.876-1.585,1.308-2.356C194.941,383.399,194.087,382.235,192.923,381.188z"/>
		<g>
			<path style="fill:#B55B52;" d="M179.899,372.319l-0.779-8.199l7.185,0.473c0,0,1.35,5.655-2.593,8.385L179.899,372.319z"/>
			<polygon style="fill:#B55B52;" points="181.371,358.707 186.642,360.341 186.305,364.593 179.12,364.12 			"/>
		</g>
		<g>
			<path style="fill:#407BFF;" d="M194.147,355.892l-4.994-5.393l0.253-0.275c0,0-0.373-0.038-0.703-0.003
				c-0.172,0.005-0.35,0.117-0.476,0.324l-9.09,14.947c-0.212,0.349-0.197,0.834,0.035,1.084l5.116,5.525
				c0.084,0.09,0.185,0.133,0.289,0.14l0,0.004h0.02c0.002,0,0.004,0.002,0.007,0.002c0.003,0,0.006-0.001,0.009-0.001l0.689,0.001
				l-0.126-0.463l9.006-14.809C194.394,356.627,194.378,356.142,194.147,355.892z"/>
			<path style="fill:#407BFF;" d="M184.937,372.102l-5.116-5.525c-0.231-0.25-0.247-0.735-0.035-1.084l9.09-14.947
				c0.212-0.349,0.572-0.429,0.803-0.179l5.116,5.525c0.231,0.25,0.247,0.735,0.035,1.084l-9.09,14.947
				C185.528,372.272,185.169,372.352,184.937,372.102z"/>
			<path style="opacity:0.6;fill:#FFFFFF;" d="M184.937,372.102l-5.116-5.525c-0.231-0.25-0.247-0.735-0.035-1.084l9.09-14.947
				c0.212-0.349,0.572-0.429,0.803-0.179l5.116,5.525c0.231,0.25,0.247,0.735,0.035,1.084l-9.09,14.947
				C185.528,372.272,185.169,372.352,184.937,372.102z"/>
			<path style="fill:#263238;" d="M185.239,371.526l-5.057-5.461c-0.113-0.122-0.121-0.359-0.017-0.53l8.821-14.504
				c0.104-0.171,0.28-0.21,0.393-0.088l5.057,5.461c0.113,0.122,0.121,0.359,0.017,0.53l-8.821,14.504
				C185.528,371.608,185.352,371.648,185.239,371.526z"/>
			<g style="opacity:0.4;">
				<path style="fill:#FFFFFF;" d="M192.834,357.712c-0.067,0-0.133-0.027-0.182-0.08l-3.902-4.214
					c-0.093-0.1-0.087-0.258,0.014-0.351c0.1-0.093,0.257-0.087,0.351,0.014l3.903,4.214c0.093,0.1,0.087,0.258-0.014,0.351
					C192.956,357.69,192.895,357.712,192.834,357.712z"/>
			</g>
			<path style="opacity:0.4;fill:#FFFFFF;" d="M189.015,362.197c-0.38,0.624-0.898,0.986-1.418,1.058
				c-0.441,0.065-0.884-0.082-1.236-0.462c-0.352-0.38-0.552-0.927-0.595-1.515c-0.055-0.693,0.103-1.444,0.483-2.068
				c0.7-1.151,1.888-1.416,2.652-0.591C189.663,359.443,189.715,361.046,189.015,362.197z"/>
			<path style="fill:#FFFFFF;" d="M187.654,363.169c-0.018,0.03-0.036,0.059-0.057,0.086c-0.441,0.065-0.884-0.082-1.236-0.462
				c-0.352-0.38-0.552-0.927-0.595-1.515c0.015-0.033,0.033-0.063,0.051-0.092c0.372-0.612,0.947-0.835,1.424-0.63
				c-0.044-0.273,0.008-0.589,0.163-0.844c0.253-0.416,0.685-0.513,0.961-0.215c0.276,0.298,0.295,0.881,0.042,1.298
				c-0.155,0.255-0.376,0.389-0.586,0.388C188.071,361.762,188.025,362.557,187.654,363.169z"/>
			<path style="opacity:0.2;fill:#FFFFFF;" d="M185.271,371.193l-4.851-5.239c-0.076-0.082-0.081-0.242-0.012-0.357l1.297-2.133
				c0.07-0.115,0.188-0.141,0.264-0.059l4.851,5.239c0.076,0.082,0.081,0.242,0.011,0.357l-1.297,2.133
				C185.465,371.248,185.347,371.275,185.271,371.193z"/>
			<g style="opacity:0.4;">
				<path style="fill:#FFFFFF;" d="M190.697,356.89c-0.033,0-0.067-0.013-0.091-0.04l-0.809-0.874
					c-0.047-0.05-0.044-0.129,0.007-0.175c0.05-0.047,0.129-0.044,0.175,0.007l0.809,0.874c0.047,0.051,0.044,0.129-0.007,0.176
					C190.757,356.879,190.727,356.89,190.697,356.89z"/>
			</g>
			<g>
				<path style="fill:#407BFF;" d="M185.676,369.59c-0.175,0.288-0.472,0.354-0.664,0.148c-0.191-0.206-0.204-0.608-0.029-0.896
					c0.175-0.288,0.472-0.354,0.664-0.148C185.838,368.901,185.851,369.302,185.676,369.59z"/>
				<path style="opacity:0.4;fill:#FFFFFF;" d="M184.519,368.341c-0.175,0.288-0.472,0.354-0.664,0.148
					c-0.191-0.206-0.204-0.607-0.029-0.896c0.175-0.288,0.472-0.355,0.664-0.148C184.681,367.651,184.694,368.052,184.519,368.341z"
					/>
				<path style="opacity:0.4;fill:#FFFFFF;" d="M183.361,367.091c-0.175,0.288-0.472,0.354-0.664,0.148
					c-0.191-0.207-0.204-0.608-0.029-0.896c0.175-0.288,0.472-0.354,0.664-0.148C183.524,366.402,183.537,366.803,183.361,367.091z"
					/>
				<path style="opacity:0.4;fill:#FFFFFF;" d="M182.204,365.841c-0.175,0.288-0.472,0.354-0.664,0.148
					c-0.191-0.206-0.204-0.607-0.029-0.896c0.175-0.288,0.472-0.354,0.664-0.148C182.367,365.152,182.38,365.553,182.204,365.841z"
					/>
			</g>
		</g>
		<path style="fill:#B55B52;" d="M239.861,413.589l-31.028,8.462c-0.384-1.948-0.898-3.917-1.575-5.995
			c-2.126-6.525-5.843-14.142-12.141-25.764c-0.849-1.58-5.982-14.057-5.982-14.057s2.759-3.503,9.587-5.271
			c3.704-0.96,10.569-2.129,15.184-1.929c1.585,0.065,3.024,0.178,4.339,0.33c0.698,0.081,1.363,0.173,1.991,0.276
			c7.536,1.255,10.247,4.188,11.583,8.554c0.822,2.689,1.71,4.734,2.992,10.328c0.162,0.709,0.335,1.477,0.508,2.31
			c1.358,5.848,2.521,11.648,4.204,20.889C239.634,412.328,239.748,412.95,239.861,413.589z"/>
		<path style="fill:#407BFF;" d="M239.526,411.722c-7.493,0.779-23.902,3.116-32.267,4.334c-2.126-6.525-5.843-14.142-12.141-25.764
			c0.898-0.546,1.023-3.447,1.023-5.629c0-1.934,0.073-10.536,3.114-13.982c0.098-0.032,1.486-0.212,1.486-0.212
			c-1.844,2.936-2.446,7.597-0.931,9.956c1.894,2.949,12.037,1.628,14.282-0.391c3.381-3.035,3.852-8.272,4.155-10.669
			c0.698,0.081,1.363,0.173,1.991,0.276c-0.687,3.398-2.851,18.855,14.575,18.882c0.162,0.709,0.335,1.477,0.508,2.31
			C236.68,396.682,237.843,402.482,239.526,411.722z"/>
		<path style="opacity:0.7;fill:#FFFFFF;" d="M239.526,411.722c-7.493,0.779-23.902,3.116-32.267,4.334
			c-2.126-6.525-5.843-14.142-12.141-25.764c0.898-0.546,1.023-3.447,1.023-5.629c0-1.934,0.073-10.536,3.114-13.982
			c0.098-0.032,1.486-0.212,1.486-0.212c-1.844,2.936-2.446,7.597-0.931,9.956c1.894,2.949,12.037,1.628,14.282-0.391
			c3.381-3.035,3.852-8.272,4.155-10.669c0.698,0.081,1.363,0.173,1.991,0.276c-0.687,3.398-2.851,18.855,14.575,18.882
			c0.162,0.709,0.335,1.477,0.508,2.31C236.68,396.682,237.843,402.482,239.526,411.722z"/>
		<g>
			<path style="fill:#B55B52;" d="M207.838,356.162c0.573,4.329,2.322,11.942,6.256,13.215c0,0-2.197,5.633-8.801,10.658
				c-3.232-2.45-2.939-6.64-2.939-6.64s2.419-2.891-0.376-7.091L207.838,356.162z"/>
			<path style="opacity:0.2;enable-background:new    ;" d="M209.537,363.464c-1.493,3.782-3.717,7.672-6.866,9.446
				c0.547-0.99,1.428-3.425-0.692-6.606l5.859-10.144C208.108,358.205,208.639,360.975,209.537,363.464z"/>
		</g>
		<path style="fill:#B55B52;" d="M129.077,456.522c6.5,0,7.359-0.1,11.011-0.223c3.127-0.112,3.876,0.279,6.389,0.223
			c2.1-0.045,2.022-2.055,1.374-4.367c-0.324-1.161-0.823-3.616-1.27-5.492l-7.357-0.692c-1.34,2.558-6.529,6.206-10.192,6.698
			C125.535,453.139,126.486,456.522,129.077,456.522z"/>
		<path style="fill:#263238;" d="M239.493,411.566c9.749,10.486,18.72,45.068-7.546,45.068c-14.377,0-23.247-8.544-23.247-8.544
			l3.457-36.524l26.787-2.998L239.493,411.566z"/>
		<g>
			<polygon points="235.685,413.483 240.703,412.999 239.115,409.5 234.864,409.954 			"/>
			<polygon points="233.313,410.12 212.157,412.38 212.729,415.698 234.272,413.62 			"/>
			<polygon style="fill:#FFFFFF;" points="211.623,412.03 216.72,411.531 217.33,415.698 212.157,416.304 			"/>
		</g>
		<path style="opacity:0.2;enable-background:new    ;" d="M203.311,403.07c0,0,11.577,0.487,14.69-0.693
			c3.672-1.391,12.359-16.982,11.463-20.755c-0.567-2.386-7.689-4.34-7.689-4.34s-4.275,4.432-3.821,12.972
			c0.455,8.54-21.255,5.284-21.255,5.284L203.311,403.07z"/>
		<path style="opacity:0.2;enable-background:new    ;" d="M219.364,419.122h5.268c0,0-7.482-6.766-12.475-7.557
			c-4.993-0.791-0.534,5.845-0.534,5.845L219.364,419.122z"/>
		<path style="fill:#B55B52;" d="M187.583,416.695c8.038,12.195,15.331,23.054,22,30.359l9.011-28.313
			c-0.001-0.001-0.001-0.002-0.002-0.003c-5.861-6.86-21.281-28.811-30.231-26.923c-11.611,2.449-49.138,54.157-49.138,54.157
			s6.836,4.439,8.036,3.695C151.193,439.267,182.344,426.98,187.583,416.695z"/>
		<path style="fill:#407BFF;" d="M217.488,417.41c0,0-2.084,16.564-10.86,28.561l3.637,3.721c0,0,8.247-7.478,10.117-31.384
			L217.488,417.41z"/>
		<path style="opacity:0.6;fill:#FFFFFF;" d="M217.488,417.41c0,0-2.084,16.564-10.86,28.561l3.637,3.721
			c0,0,8.247-7.478,10.117-31.384L217.488,417.41z"/>
		<path style="opacity:0.2;enable-background:new    ;" d="M202.698,399.987c-3.089-1.05-8.072-2.819-11.632-4.447
			c0,0-5.508,4.225-12.449,3.008c3.966-3.711,7.385-6.238,9.744-6.736c0.368-0.076,0.741-0.114,1.131-0.114
			C193.301,391.699,198.051,395.307,202.698,399.987z"/>
		<path style="fill:#B65B52;" d="M231.091,380.235c-2.546,5.99-5.208,11.538-9.335,16.777c-0.757,0.897-1.736,1.97-2.786,2.643
			c-0.967,0.565-1.546,0.663-2.083,0.791c-3.719,0.58-7.205-0.414-10.617-1.146c-6.005-1.479-11.796-3.412-17.524-5.712
			c-2.66-1.114-1.525-5.093,1.311-4.645c7.19,0.969,17.222,3.146,24.345,3.082c0.331-0.017,0.641-0.08,0.596-0.096
			c-0.05,0.015-0.137-0.024-0.676,0.274c-0.152,0.086-0.337,0.221-0.461,0.338c0.032-0.039,0.111-0.15,0.146-0.188
			c3.277-4.769,5.602-10.705,8.153-16.011C224.959,370.677,233.33,374.324,231.091,380.235L231.091,380.235z"/>
		<g>
			<path style="fill:#B55B52;" d="M189.363,388.908l-8.198,0.794l1.83,6.964c0,0,5.808,0.25,7.739-4.14L189.363,388.908z"/>
			<polygon style="fill:#B55B52;" points="176.278,392.94 178.885,397.804 182.996,396.666 181.165,389.702 			"/>
		</g>
		<path style="fill:#263238;" d="M209.611,339.775c-0.759-2.173-9.604-3.474-13.104-1.467c-3.5,2.008-1.045,3.231-3.694,3.828
			c-2.649,0.598-5.619,2.11-5.738,4.614c-0.119,2.503,4.076,4.649,2.077,6.302c-2,1.653-4.038,5.478-0.698,7.406
			c3.339,1.928,12.552,4.13,20.784,1.645c8.231-2.484,6.941-13.67,4.899-16.959c0,0,2.36-1.579,3.634,1.269
			c1.274,2.848-1.671,6.247,0.868,8.181c2.539,1.934,4.322,2.642,2.555,5.483c-1.767,2.841,2.263,5.245,4.093,4.3
			c0,0-1.065,0.111-1.165-1.583c-0.1-1.694,3.523-1.408,3.9-5.928c0.377-4.521-2.855-4.152-2.335-6.229
			c0.52-2.076,3.26-2.12,2.354-5.801c-0.661-2.684-5.147-3.857-6.68-5.428c-1.533-1.571,0.224-2.959-2.501-5.801
			c-1.814-1.892-5.679-0.666-7.375,0.757C208.537,336.837,209.611,339.775,209.611,339.775z"/>
		<g>
			<path style="fill:#B55B52;" d="M210.062,350.899c0.149,6.949,0.358,9.88-2.782,13.888c-4.724,6.029-13.144,5.135-15.33-1.522
				c-1.968-5.992-1.881-16.349,4.543-20.005C202.822,339.659,209.912,343.95,210.062,350.899z"/>
			<path style="fill:#263238;" d="M201.758,353.808c0.038,0.583-0.23,1.095-0.598,1.145c-0.368,0.049-0.697-0.383-0.734-0.966
				c-0.038-0.583,0.23-1.095,0.597-1.145C201.392,352.793,201.72,353.225,201.758,353.808z"/>
			<g>
				<path style="fill:#263238;" d="M194.567,354.551c0.038,0.583-0.23,1.095-0.598,1.145c-0.368,0.049-0.697-0.383-0.734-0.966
					c-0.038-0.583,0.23-1.095,0.598-1.145C194.201,353.536,194.529,353.968,194.567,354.551z"/>
				<path style="fill:#263238;" d="M193.997,353.596l-1.378-0.222C192.62,353.374,193.384,354.374,193.997,353.596z"/>
			</g>
			<path style="fill:#A02724;" d="M196.836,355.537c0,0-0.792,2.637-1.765,3.988c0.789,0.618,2.031,0.12,2.031,0.12L196.836,355.537
				z"/>
			<path style="fill:#263238;" d="M199.947,348.665c0.089-0.003,0.176,0.029,0.24,0.097c0.991,1.063,2.214,0.805,2.228,0.802
				c0.181-0.039,0.353,0.075,0.381,0.259c0.027,0.184-0.1,0.366-0.283,0.407c-0.064,0.014-1.599,0.339-2.829-0.98
				c-0.123-0.131-0.109-0.347,0.029-0.482C199.78,348.702,199.864,348.668,199.947,348.665z"/>
			<path style="fill:#263238;" d="M193.438,348.679c0.081-0.024,0.168-0.018,0.244,0.025c0.157,0.088,0.206,0.296,0.111,0.464
				c-0.958,1.685-2.493,1.857-2.558,1.863c-0.184,0.018-0.337-0.12-0.342-0.309c-0.006-0.188,0.139-0.356,0.322-0.375
				c0.06-0.006,1.249-0.157,2.011-1.497C193.274,348.763,193.353,348.704,193.438,348.679z"/>
			<path style="fill:#263238;" d="M201.189,352.853l-1.378-0.222C199.811,352.631,200.575,353.631,201.189,352.853z"/>
			<path style="fill:#263238;" d="M207.62,355.546c0,0-4.399-3.921-3.648-11.511c0,0-8.197-1.747-12.41,5.038
				c0,0,2.93-10.322,14.774-8.639c11.844,1.682,6.266,14.029,5.144,15.218C210.358,356.842,207.62,355.546,207.62,355.546z"/>
			<path style="fill:#B55B52;" d="M212.778,356.269c-0.652,1.503-1.872,2.538-3.048,2.979c-1.769,0.663-2.745-1.048-2.33-2.942
				c0.373-1.705,1.744-4.105,3.556-3.948C212.74,352.513,213.524,354.551,212.778,356.269z"/>
			<g>
				<path style="fill:#263238;" d="M202.767,361.25c-0.015,0.731-0.87,1.915-3.092,3.034c0,0-0.322-0.417-0.855-0.87
					c-0.439-0.387-1.016-0.79-1.681-1.031c0,0,0.176-0.095,0.46-0.249c0.914-0.468,2.99-1.491,4.153-1.63
					c0.373-0.044,0.658,0.036,0.833,0.227C202.709,360.855,202.775,361.038,202.767,361.25z"/>
				<path style="fill:#DE5753;" d="M202.767,361.25c-0.015,0.731-0.87,1.915-3.092,3.034c0,0-0.322-0.417-0.855-0.87
					C199.616,362.536,200.918,361.505,202.767,361.25z"/>
				<path style="fill:#FFFFFF;" d="M202.585,360.731c-1.217,0.519-4.834,1.565-4.834,1.565l-0.152-0.161
					c0.914-0.468,2.99-1.491,4.153-1.63C202.124,360.46,202.409,360.54,202.585,360.731z"/>
			</g>
		</g>
	</g>
</g>
</svg>
